<?xml version="1.0" encoding="UTF-8" standalone="no"?>
<!-- Generator: Adobe Illustrator 23.0.3, SVG Export Plug-In . SVG Version: 6.00 Build 0)  -->

<svg
   xmlns:dc="http://purl.org/dc/elements/1.1/"
   xmlns:cc="http://creativecommons.org/ns#"
   xmlns:rdf="http://www.w3.org/1999/02/22-rdf-syntax-ns#"
   xmlns:svg="http://www.w3.org/2000/svg"
   xmlns="http://www.w3.org/2000/svg"
   xmlns:sodipodi="http://sodipodi.sourceforge.net/DTD/sodipodi-0.dtd"
   xmlns:inkscape="http://www.inkscape.org/namespaces/inkscape"
   version="1.1"
   id="svg"
   x="0px"
   y="0px"
   viewBox="0 0 229.73386 300"
   xml:space="preserve"
   sodipodi:docname="Virtus_Entella_(logo).svg"
   width="229.73386"
   height="300"
   inkscape:version="0.92.4 (5da689c313, 2019-01-14)"><metadata
   id="metadata15"><rdf:RDF><cc:Work
       rdf:about=""><dc:format>image/svg+xml</dc:format><dc:type
         rdf:resource="http://purl.org/dc/dcmitype/StillImage" /><dc:title></dc:title></cc:Work></rdf:RDF></metadata><defs
   id="defs13" /><sodipodi:namedview
   pagecolor="#ffffff"
   bordercolor="#666666"
   borderopacity="1"
   objecttolerance="10"
   gridtolerance="10"
   guidetolerance="10"
   inkscape:pageopacity="0"
   inkscape:pageshadow="2"
   inkscape:window-width="1366"
   inkscape:window-height="705"
   id="namedview11"
   showgrid="false"
   fit-margin-top="1"
   fit-margin-right="1"
   fit-margin-bottom="1"
   fit-margin-left="1"
   inkscape:zoom="0.83392226"
   inkscape:cx="48.742795"
   inkscape:cy="142.90001"
   inkscape:window-x="-8"
   inkscape:window-y="-8"
   inkscape:window-maximized="1"
   inkscape:current-layer="svg" />
<style
   type="text/css"
   id="style2">
	.st0{fill-rule:evenodd;clip-rule:evenodd;fill:#9BD3F3;}
	.st1{fill-rule:evenodd;clip-rule:evenodd;fill:#CB9C4C;}
	.st2{fill-rule:evenodd;clip-rule:evenodd;fill:#040404;}
	.st3{fill-rule:evenodd;clip-rule:evenodd;fill:#FBFBFB;}
	.st4{fill-rule:evenodd;clip-rule:evenodd;fill:#544C44;}
</style>
<g
   id="svgg"
   transform="matrix(1.0518885,0,0,1.0518885,-33.922698,0.89481115)">
	<path
   id="path0"
   class="st0"
   d="m 141.4,8.4 v 5.2 h 4.8 c 2.7,0 4.8,0 4.8,0 0,0 0.3,1.8 0.8,3.9 0.4,2.1 0.8,3.8 0.8,3.9 0,0.3 -0.7,0 -1,-0.5 -2.7,-3.7 -6.4,-6.1 -9.7,-6.1 h -0.4 v 5.8 5.8 h 0.9 c 3,0 5.2,-1.5 6.1,-4.3 0.1,-0.3 0.2,-0.4 0.4,-0.4 h 0.3 v 5.5 5.5 h -0.3 c -0.2,0 -0.3,-0.1 -0.5,-0.6 -0.8,-2.5 -2.5,-3.8 -5.4,-4.1 -1.7,-0.2 -1.5,-0.9 -1.5,5.7 v 5.7 l 0.4,0.4 c 2.6,2.6 7.5,-0.1 11.8,-6.4 0.6,-0.9 0.8,-1 1.2,-0.7 0,0 -0.4,2.2 -1,4.8 l -1.1,4.8 h -5.6 -5.6 v 16.1 16.1 l 0.4,0.7 c 1,1.8 2.1,3.1 2.5,3.1 0.1,0 0.2,0.1 0.1,0.1 0,0.1 -0.4,0.1 -1.5,0.1 h -1.5 v 7.5 7.5 l 0.4,0.1 c 1.3,0.2 3,0.8 3.3,1.3 0.1,0.1 0.3,0.2 0.5,0.2 3.1,0 11.7,6.6 17.2,13.3 0.9,1.1 1.8,2.1 1.9,2.3 l 0.4,0.4 0.3,-0.3 c 0.2,-0.2 1.3,-1.2 2.4,-2.3 2.5,-2.4 2.9,-2.8 3.8,-3.2 1.6,-0.7 3.8,0 4.6,1.4 0.9,1.8 0.1,6 -1.7,9.3 -1.2,2.2 -1.5,2.7 -1.6,3.3 -0.1,0.6 -0.1,0.7 0.6,2.5 0.5,1.3 0.6,1.9 0.6,3.6 v 1.5 l 0.5,0.5 c 1.2,1.3 1.4,3 0.6,6.6 -0.5,2.5 -0.5,2.6 0.4,3.5 0.8,0.9 1,1.3 1,2.5 v 0.9 l 0.4,-0.4 c 0.2,-0.2 1.5,-1.3 2.8,-2.5 3.5,-3.2 4.6,-3.7 6.4,-2.9 1.1,0.5 2.2,4.2 3,10.2 0.1,0.5 0.1,0.6 0.3,0.6 1.7,0 3.1,2.4 3.8,6.3 1,5.2 1.1,6.2 1,7 -0.1,1.7 -1.4,3.2 -3.1,3.5 -0.3,0 -0.5,0.2 -0.6,0.3 -1.6,3.3 -2.1,4.2 -3.6,5.7 -1.5,1.6 -6,5 -6.7,5 -1.3,0 -1.8,1 -1.9,4.2 -0.1,1.2 -0.2,2.4 -0.2,2.7 -0.1,0.6 -0.2,0.6 0.9,-0.2 0.5,-0.4 1.6,-1.2 2.3,-1.7 l 1.4,-1 -0.1,-0.5 c -0.5,-2.5 0.3,-3.6 3.8,-4.7 0.8,-0.3 2.5,-0.9 3.7,-1.3 2.7,-1 3.7,-1.2 4.8,-0.9 2.8,0.7 3.6,3.4 1.8,6.1 -0.7,1.1 -0.9,1.9 -1.2,4.4 -0.3,2.4 -0.4,2.7 -1.2,3.5 -1.5,1.3 -3,1.3 -4.7,-0.1 l -0.5,-0.4 -0.9,0.6 c -6.9,4.8 -9.7,8.6 -9.9,13.8 -0.1,1.2 -0.2,2.1 -0.3,2.4 -0.3,0.9 -0.9,1.9 -1.5,2.7 -0.6,0.7 -0.6,0.8 -0.6,1.5 0,3.7 -2.1,5.7 -6.9,6.6 l -0.5,0.1 -0.4,1.2 c -0.4,1.1 -1.3,3.2 -2.8,6.4 l -0.7,1.5 0.1,1.3 c 0.2,2.8 1.8,7.8 3.6,11.6 2.7,5.7 3,8.6 1.1,11.8 -1.4,2.4 -4.6,4.1 -6.9,3.7 -0.8,-0.1 -0.9,-0.1 -1.2,0.1 -2.9,2.1 -8.5,1.6 -11.5,-1 l -0.8,-0.7 -0.8,0.1 c -2.4,0.4 -4.3,0 -6.3,-1.3 -0.4,-0.3 -0.8,-0.5 -0.9,-0.5 0,0 0,6.9 0,15.4 v 15.4 l 0.7,-1.4 c 2.7,-5.4 6.2,-9.3 11,-12.5 5.8,-3.8 11,-5.3 21.6,-6.2 17.9,-1.5 36.1,-6.7 48,-13.9 13.3,-8 22.4,-20.9 23.8,-33.8 0.1,-0.9 0.1,-29.4 0.2,-103.5 L 246.7,2.9 H 194 141.3 v 5.5 m 21.6,6.2 c 1.8,0.4 4.3,0.8 6.3,1.1 0.9,0.1 1.8,0.2 1.8,0.3 0.2,0.1 -0.1,0.7 -0.3,0.7 -1,0 -1.3,1 -2.4,7.3 -0.5,2.9 -1.2,6.9 -1.5,9 -1,6 -1.1,7.5 -0.6,8.6 1.6,3.2 6,2 11,-3 1.9,-1.9 2.3,-2.1 2.3,-1.6 0,0.2 -3.4,9 -3.5,9.1 -0.1,0.1 -1.5,-0.1 -3.3,-0.4 -1.7,-0.3 -4.6,-0.8 -6.3,-1.1 -1.7,-0.3 -4.8,-0.8 -6.9,-1.1 -2.1,-0.3 -3.8,-0.6 -3.9,-0.6 -0.2,-0.2 0.1,-0.6 0.4,-0.8 0.5,-0.2 1.5,-1.3 1.9,-2.1 0.8,-1.6 1,-2.6 2.8,-12.9 0.3,-1.7 0.8,-4.5 1.1,-6.2 0.7,-4.2 0.7,-4.8 -0.1,-5.6 -0.9,-1 -0.5,-1.1 1.2,-0.7 m 27.9,5.9 c 2,0.8 4.2,1.6 6.1,2.2 0.9,0.3 1.7,0.6 1.7,0.6 0,0.3 -0.2,0.5 -0.8,0.6 -0.7,0.2 -1.2,0.8 -1.6,1.9 -0.3,0.8 -2.4,6.8 -4.8,13.5 -2.5,7.1 -2.7,8.4 -1,9.6 2.4,1.7 6.2,0.7 11,-2.9 1.4,-1.1 2,-1.3 2,-0.8 0,0.4 -5.1,8.5 -5.3,8.5 -0.3,-0.1 -1.8,-0.6 -7.4,-2.6 -1.9,-0.7 -5.4,-1.9 -7.7,-2.6 -2.3,-0.8 -4.2,-1.4 -4.2,-1.4 -0.1,-0.1 0.2,-0.7 0.4,-0.7 1,0 2.4,-1.5 3.4,-3.6 0.8,-1.7 0.7,-1.5 4.3,-11.6 3.4,-9.6 3.3,-9.3 2.7,-10.3 -0.9,-1.1 -0.6,-1.1 1.2,-0.4 m 35.9,16.1 c 0.1,0.1 -0.4,3.2 -2.1,13.4 -3,18.2 -2.9,17.3 -1.9,18.5 0.4,0.4 0.4,0.5 0.2,0.7 l -0.2,0.3 -1,-0.7 c -2.6,-1.8 -5.6,-3.7 -9.1,-5.7 -0.5,-0.3 -1,-0.6 -1,-0.7 0,-0.3 0.3,-0.4 0.7,-0.3 1.3,0.4 2.5,-0.8 3.1,-3.1 0.6,-2.2 1.5,-6.9 1.4,-7 -0.1,0 -1.2,-0.7 -2.5,-1.6 -1.8,-1.1 -2.4,-1.5 -2.5,-1.4 -0.5,0.3 -2.9,2.3 -3.9,3.3 -2.5,2.5 -3.1,4.4 -1.9,5.8 0.2,0.2 0.2,0.3 0.1,0.6 l -0.2,0.3 -1.4,-1 c -1.7,-1.2 -3.5,-2.3 -5,-3.1 -0.6,-0.3 -1.1,-0.6 -1.2,-0.7 -0.2,-0.2 0.3,-0.5 0.8,-0.5 2,0 4.4,-1.3 10.4,-5.5 4.1,-2.9 13.2,-9.4 15.2,-10.8 1.6,-1 1.8,-1.1 2,-0.8 m -10.3,9.1 c -1.4,1.1 -2.6,2 -2.7,2.1 -0.1,0.1 3.6,2.5 3.8,2.5 0.1,0 1.6,-6.5 1.6,-6.5 -0.1,-0.1 -1.3,0.8 -2.7,1.9 m -49.3,18.9 c 0.5,1 1.9,3.5 3,5.6 3.6,6.7 4.6,8.2 5.2,8.2 0.1,0 0.1,0.1 0.1,0.1 0,0.1 -0.8,0.1 -3.8,0.2 -3.1,0 -3.8,0 -3.8,-0.1 0,-0.1 0.1,-0.2 0.2,-0.2 1.1,0 1,-1.2 -0.4,-4.2 l -0.7,-1.6 h -2.4 -2.4 l -0.5,1.2 c -1.1,2.4 -1.3,3.4 -0.6,4.1 0.4,0.4 0.8,0.6 1.1,0.6 0.1,0 0.2,0.1 0.2,0.1 0,0.1 -0.6,0.1 -2.8,0.1 -3,0 -3.2,0 -2.3,-0.6 1.2,-0.7 2,-2.1 5.9,-9.6 1.6,-3.1 2.9,-5.7 3,-5.7 0,0 0.5,0.8 1,1.8 M 149,63.3 c 0,0 -0.2,0.2 -0.5,0.3 -1.1,0.5 -1,0.8 1.8,5.6 0.9,1.6 1.8,3.2 2,3.6 0.2,0.4 0.4,0.7 0.5,0.6 0.1,-0.1 2.8,-5.9 3,-6.5 0.7,-1.8 0.4,-3.2 -0.7,-3.4 -0.2,0 -0.4,-0.1 -0.4,-0.2 0,-0.1 0.5,-0.2 2.7,-0.2 3,0 3.1,0 2.2,0.6 -1.2,0.7 -2.1,2.4 -5.8,9.7 -1.5,3.1 -2.9,5.6 -3,5.6 -0.1,0 -0.7,-1.1 -1.4,-2.5 -5.7,-11.3 -6.4,-12.5 -7.4,-13 -0.6,-0.3 -0.3,-0.3 3.3,-0.3 2,0 3.7,0.1 3.7,0.1 m 35.5,0 c 5.3,0.3 7,1.2 7,3.7 0,1.8 -1.4,3 -4.1,3.5 -1.1,0.2 -1.1,0.2 -0.7,0.3 2,0.3 3.1,1.4 4.1,3.8 0.9,2 1.7,3.3 2.4,3.7 0.8,0.4 0.5,0.6 -1.5,0.5 -1,0 -2.3,-0.1 -2.9,-0.1 h -1.1 L 187.4,78 c -0.2,-0.4 -0.5,-1.4 -0.8,-2.3 -1.1,-3.5 -2,-4.5 -4.3,-4.7 l -0.9,-0.1 0.1,2.9 c 0.1,3.5 0.2,4.2 1.3,4.6 0.9,0.4 0.4,0.4 -3.3,0.4 -3.7,0 -4.2,-0.1 -3.3,-0.4 1.2,-0.4 1.3,-0.9 1.3,-7.9 0,-6.5 0.1,-6.1 -0.9,-6.6 -0.9,-0.5 -0.7,-0.5 2.7,-0.5 1.6,-0.2 4,-0.1 5.2,-0.1 m 16.5,0 c 0,0.1 -0.2,0.2 -0.5,0.3 -1,0.4 -1,0.2 -0.9,6.9 0,7 0.1,7.2 1.3,7.7 0.9,0.4 0.6,0.5 -3.4,0.5 -3.9,0 -4.4,-0.1 -3.4,-0.4 1.2,-0.4 1.3,-0.8 1.3,-7.7 0.1,-6.6 0.1,-6.4 -0.9,-6.9 -1,-0.5 -0.8,-0.5 3,-0.5 2.7,0 3.5,0 3.5,0.1 m -19.6,0.8 c -0.1,0.1 -0.1,0.8 -0.1,3 V 70 l 0.9,0.1 c 3.7,0.3 6.1,-2.1 4.5,-4.6 -0.6,-1 -4.1,-1.9 -5.3,-1.4 m -17.8,5.5 c -0.5,1.1 -0.9,2 -1,2.1 0,0.1 0.4,0.1 1.9,0.1 1.9,0 2,0 1.9,-0.2 -0.1,-0.3 -1.8,-3.9 -1.9,-3.9 0,0 -0.4,0.8 -0.9,1.9 m -14.9,68.5 c 0,0.4 0,0.5 0,0.3 0,-0.2 0,-0.5 0,-0.6 0,-0.2 0,-0.1 0,0.3 m -7.7,2.2 c 0,1 0,1.4 0,0.9 0,-0.5 0,-1.4 0,-1.9 0,-0.5 0,-0.1 0,1 m -1.2,0.1 c 0,0.2 0,0.3 0.1,0.2 0,-0.1 0,-0.3 0,-0.4 -0.1,-0.1 -0.1,0 -0.1,0.2 m 33.1,5.3 -0.6,0.6 0.6,-0.6 c 0.6,-0.5 0.7,-0.6 0.6,-0.6 0,-0.1 -0.3,0.2 -0.6,0.6 m -56.1,0.8 c 0,0.3 0,0.4 0.1,0.2 0,-0.1 0,-0.4 0,-0.5 -0.1,-0.1 -0.1,0 -0.1,0.3 m 13,5.8 c 0.3,0.3 0.5,0.5 0.5,0.5 0,0 -0.1,-0.2 -0.4,-0.5 -0.3,-0.3 -0.5,-0.5 -0.5,-0.5 0,0.1 0.2,0.3 0.4,0.5 m 38.8,6.2 c 0,0.5 0,0.7 0,0.4 0,-0.3 0,-0.7 0,-0.9 0,-0.2 0,0 0,0.5 m 14.2,3.1 -0.5,0.5 0.5,-0.5 c 0.5,-0.4 0.6,-0.5 0.5,-0.5 -0.1,0 -0.3,0.2 -0.5,0.5 m -42.7,3.7 c 0.2,0 0.5,0 0.7,0 0.2,0 0,0 -0.4,0 -0.4,-0.1 -0.5,0 -0.3,0 m 19.9,26.6 c 0,0 0.2,0.2 0.4,0.4 l 0.4,0.3 -0.3,-0.4 c -0.4,-0.3 -0.5,-0.4 -0.5,-0.3 m -7.1,0.7 c 0,0.3 0,0.4 0.1,0.3 0.1,-0.1 0,-0.4 0,-0.6 -0.1,-0.2 -0.1,0 -0.1,0.3 m -42.2,0.2 c 0,0.3 0,0.4 0.1,0.3 0,-0.1 0,-0.4 0,-0.5 -0.1,-0.2 -0.1,-0.1 -0.1,0.2 m 42.2,2.6 c 0,0.5 0,0.7 0,0.4 0,-0.3 0,-0.7 0,-0.9 0,-0.2 0,0 0,0.5 m 12.2,3.3 c 0.2,0 0.4,0 0.6,0 0.1,0 0,0 -0.3,0 -0.4,-0.1 -0.5,-0.1 -0.3,0 m -8.1,2.7 c 0.1,0 0.3,0 0.4,0 0.1,0 0,-0.1 -0.2,-0.1 -0.2,0 -0.3,0 -0.2,0.1 m -39.8,4.6 c 0,0.4 0,0.6 0,0.4 0,-0.2 0,-0.6 0,-0.8 0,-0.2 0,0 0,0.4 m 74.9,3.9 c 10.9,2.3 16.3,14.3 10.9,23.9 -5.3,9.2 -17.9,10.9 -25.4,3.3 -9.2,-9.2 -4.2,-25 8.7,-27.3 1.5,-0.2 4.4,-0.2 5.8,0.1 m -34.6,4 c 0,0.4 0,0.5 0,0.3 0,-0.2 0,-0.5 0,-0.6 0,-0.2 0,-0.1 0,0.3 m -62.4,4.9 c 0,0.2 0,0.3 0.1,0.2 0,-0.1 0,-0.3 0,-0.4 0,-0.1 -0.1,0 -0.1,0.2 m 67.3,2.8 c 0.1,0.7 0.1,0.7 0.1,0.1 0,-0.3 0,-0.6 -0.1,-0.6 0,0.1 0,0.3 0,0.5 m -21,5.3 v 4.2 l 0.9,-0.9 c 0.5,-0.5 1.3,-1.2 1.8,-1.6 l 0.9,-0.7 -0.5,-0.5 c -0.9,-1 -1.5,-2.2 -2,-3.6 -0.2,-0.7 -0.5,-0.9 -1.1,-0.9 0.1,-0.2 0,1.7 0,4 M 98,225.6 c 0,0 0.2,0.2 0.4,0.4 l 0.4,0.3 -0.3,-0.4 C 98.1,225.6 98,225.5 98,225.6 m 2.2,2.4 c 0,0.3 0,0.4 0.1,0.2 0,-0.1 0,-0.4 0,-0.5 -0.1,-0.1 -0.1,0 -0.1,0.3 m 27.2,0.6 c 0.1,0 0.3,0 0.4,0 0.1,0 0,-0.1 -0.2,-0.1 -0.2,0 -0.3,0.1 -0.2,0.1 m 32.9,13.2 c 0,0.2 0,0.3 0.1,0.2 0,-0.1 0,-0.3 0,-0.4 0,-0.1 -0.1,0 -0.1,0.2 m -12.9,2.4 c 0.2,0 0.4,0 0.6,0 0.1,0 0,0 -0.3,0 -0.4,-0.1 -0.5,-0.1 -0.3,0"
   inkscape:connector-curvature="0"
   style="clip-rule:evenodd;fill:#9bd3f3;fill-rule:evenodd" />
	<path
   id="path1"
   class="st1"
   d="m 33.6,0.5 -0.4,0.4 v 102.7 c 0,91.1 0,102.9 0.2,104.9 0.2,2.4 0.5,4 1,6.1 0.3,1.3 1.7,5.5 2.1,6.3 0.1,0.1 0.2,0.4 0.3,0.7 0.4,1 1.7,3.7 1.8,3.7 0.1,0 0.1,0.1 0.1,0.2 0,0.2 2.2,3.8 2.8,4.4 0.3,0.3 0.4,0.5 0.6,0.9 0.2,0.2 0.3,0.4 0.4,0.5 0,0 0.4,0.4 0.7,0.9 0.4,0.5 0.7,0.9 0.8,0.9 0.1,0.1 0.4,0.5 0.8,0.9 0.8,1 4.7,4.8 5.7,5.7 0.4,0.4 0.8,0.7 0.8,0.7 0,0 0.4,0.4 0.9,0.7 0.5,0.4 0.9,0.7 1,0.8 0.1,0.1 0.2,0.2 0.4,0.3 0.4,0.3 1.9,1.3 2,1.4 0.1,0.1 0.3,0.2 0.6,0.4 0.3,0.2 0.5,0.3 0.5,0.4 0.1,0.1 3.5,2.2 4.5,2.7 1.4,0.8 4.3,2.2 6,2.9 0.3,0.1 0.7,0.3 0.8,0.4 0.1,0.1 0.5,0.2 0.8,0.4 0.3,0.1 0.7,0.3 0.8,0.4 0.1,0.1 1,0.4 1.8,0.7 0.9,0.3 1.7,0.6 1.8,0.7 0.1,0.1 0.6,0.2 1,0.4 0.4,0.1 0.9,0.3 1,0.4 0.6,0.2 2.7,0.9 4.4,1.4 0.5,0.1 1.1,0.3 1.4,0.4 0.3,0.1 0.6,0.2 0.7,0.2 0.1,0 0.3,0 0.4,0.1 0.1,0.1 0.8,0.3 1.4,0.4 0.7,0.2 1.5,0.4 1.9,0.5 2.1,0.5 5.6,1.3 7.9,1.7 5.8,1.1 9.5,1.6 15.7,2.1 2.4,0.2 4.6,0.5 6.1,0.7 1.5,0.2 2.4,0.4 4.6,1 0.7,0.2 2.6,0.8 2.8,0.9 0.1,0 0.5,0.2 0.9,0.4 1.7,0.6 5.2,2.7 6.8,4 1.8,1.5 3.8,3.4 4.6,4.5 0.1,0.2 0.3,0.5 0.4,0.5 0.9,0.9 3.3,5.2 3.8,6.8 1.2,3.6 1.6,4.4 2.5,4.4 0.9,0 1.4,-0.8 2.5,-4.4 0.5,-1.6 2.9,-5.9 3.8,-6.8 0.1,-0.1 0.3,-0.3 0.4,-0.5 0.8,-1.1 2.7,-3 4.6,-4.5 1.6,-1.3 5.1,-3.4 6.8,-4 0.4,-0.2 0.8,-0.3 0.9,-0.4 0.2,-0.1 2.1,-0.8 2.8,-0.9 2.2,-0.6 3.1,-0.8 4.6,-1 1.5,-0.2 3.7,-0.5 6.1,-0.7 4,-0.3 6.8,-0.7 9.4,-1.1 2.6,-0.4 3.3,-0.5 6.2,-1.1 2.5,-0.5 5.8,-1.2 8,-1.8 0.4,-0.1 1.2,-0.3 1.9,-0.5 0.7,-0.2 1.3,-0.4 1.4,-0.4 0.1,-0.1 0.3,-0.1 0.4,-0.1 0.1,0 0.4,-0.1 0.7,-0.2 0.3,-0.1 0.9,-0.3 1.4,-0.4 1.8,-0.5 3.9,-1.2 4.4,-1.4 0.1,-0.1 0.6,-0.2 1,-0.4 0.4,-0.1 0.9,-0.3 1.1,-0.4 0.2,-0.1 0.6,-0.2 0.9,-0.4 0.3,-0.1 0.7,-0.3 0.8,-0.3 0.1,-0.1 0.5,-0.2 0.9,-0.3 0.4,-0.1 0.8,-0.3 0.9,-0.4 0.1,-0.1 0.5,-0.2 0.8,-0.4 0.3,-0.1 0.7,-0.3 0.8,-0.4 0.1,-0.1 0.5,-0.2 0.8,-0.4 1.7,-0.7 4.6,-2.1 6,-2.9 1,-0.6 4.5,-2.6 4.5,-2.7 0,0 0.3,-0.2 0.5,-0.4 0.3,-0.2 0.5,-0.3 0.6,-0.4 0.1,-0.1 1.6,-1.1 2,-1.4 0.1,-0.1 0.3,-0.2 0.4,-0.3 0.1,-0.1 0.5,-0.4 1,-0.8 0.5,-0.4 0.9,-0.7 0.9,-0.7 0,0 0.4,-0.4 0.8,-0.7 1,-0.8 4.8,-4.7 5.7,-5.7 0.4,-0.4 0.7,-0.8 0.8,-1 1.5,-1.6 4.1,-5.4 5.4,-7.8 3,-5.5 4.9,-11.6 5.2,-17.2 0.1,-1 0.1,-45 0.1,-104.4 V 0.7 L 249.4,0.4 249.1,0.1 H 141.5 33.9 l -0.3,0.4 m 213.1,104.9 c 0,74.1 -0.1,102.6 -0.2,103.5 -1.4,12.9 -10.4,25.8 -23.8,33.8 -11.9,7.1 -30.1,12.4 -48,13.9 -10.6,0.9 -15.8,2.4 -21.6,6.2 -4.9,3.2 -8.6,7.4 -11.1,12.7 l -0.6,1.1 -0.7,-1.3 c -3.1,-6.2 -7.7,-10.9 -13.8,-14.1 -4.9,-2.6 -9.8,-3.7 -18.8,-4.5 C 90.4,255.3 72.1,250 60.2,242.9 47.3,235.2 38.5,223.2 36.5,210.4 36.2,208.6 36.1,186.1 36.1,87 V 3.2 H 141.4 246.7 V 105.4 M 132.1,13.8 c 0,0.3 0.1,0.4 0.4,0.6 0.2,0.1 0.5,0.5 0.7,0.8 l 0.3,0.6 V 25 c 0.1,13.6 -0.1,15 -1.9,16.6 -0.4,0.4 -0.6,0.6 -0.6,0.8 v 0.3 l 2.7,-0.1 c 1.5,0 6.3,-0.1 10.8,-0.2 l 8.1,-0.1 1.1,-4.8 c 0.6,-2.6 1,-4.8 1,-4.8 -0.3,-0.3 -0.6,-0.2 -1.2,0.7 -3.5,5.2 -7.1,7.7 -10.1,7.2 -2.5,-0.4 -3,-2 -3,-9.1 0,-3.9 -0.2,-3.6 1.6,-3.5 3.3,0 5.3,1.3 6.2,4 0.2,0.7 0.3,0.8 0.5,0.8 h 0.3 v -5.5 -5.5 h -0.3 c -0.2,0 -0.3,0.1 -0.4,0.4 -0.7,2.2 -2.3,3.6 -4.4,4.1 -0.8,0.2 -2.7,0.2 -3.2,0.1 l -0.3,-0.1 v -5.6 c 0,-6.4 -0.1,-5.8 1.1,-5.8 3.6,0 7.2,2.2 10,6.1 0.3,0.4 1,0.8 1,0.5 0,0 -0.3,-1.8 -0.8,-3.9 -0.4,-2.1 -0.8,-3.8 -0.8,-3.8 0,0 -4.2,0 -9.3,-0.1 -5.1,0 -9.4,-0.1 -9.5,-0.1 0.1,-0.2 0,-0.1 0,0.2 m 29.2,0.7 c -0.1,0.2 0,0.3 0.3,0.6 0.8,0.8 0.8,1.4 0.1,5.6 -0.3,1.7 -0.8,4.5 -1.1,6.2 -1.8,10.3 -2,11.3 -2.8,12.9 -0.4,0.8 -1.4,1.9 -1.9,2.1 -0.3,0.1 -0.6,0.6 -0.4,0.8 0,0 1.8,0.3 3.9,0.6 2.1,0.3 5.2,0.8 6.9,1.1 1.7,0.3 4.6,0.8 6.3,1.1 1.7,0.3 3.2,0.5 3.3,0.4 0.1,-0.1 3.5,-8.9 3.5,-9.1 0,-0.6 -0.4,-0.3 -2.3,1.6 -4.9,4.9 -9.3,6.1 -11,3 -0.6,-1.1 -0.5,-2.6 0.6,-8.6 0.3,-2 1,-6 1.5,-9 1.1,-6.2 1.4,-7.3 2.4,-7.3 0.2,0 0.5,-0.6 0.3,-0.7 -0.1,-0.1 -0.9,-0.2 -1.8,-0.3 -2,-0.2 -4.5,-0.7 -6.3,-1.1 -1.4,-0.2 -1.4,-0.2 -1.5,0.1 m -38.5,0.1 c -0.6,0.1 -4.2,0.6 -8.2,1.2 -9.9,1.5 -10.9,1.6 -11,1.7 0,0 -0.1,1.4 -0.2,3.1 -0.1,1.7 -0.2,3.6 -0.2,4.2 l -0.1,1.1 h 0.3 c 0.3,0 0.4,-0.1 0.8,-0.9 1.8,-3.6 4.4,-6.5 5.8,-6.5 0.6,0 0.4,-0.9 2.7,14.6 1.2,7.9 1.1,9.9 -0.3,11.5 -0.2,0.3 -0.3,0.5 -0.3,0.7 l 0.1,0.3 1.1,-0.2 c 2.4,-0.5 7,-1.2 9.9,-1.5 0.6,-0.1 0.8,-0.1 0.7,-0.3 0,-0.1 -0.1,-0.2 -0.1,-0.3 0,-0.1 -0.2,-0.2 -0.4,-0.4 -2.1,-1.1 -2.5,-2.7 -4.5,-16.4 -0.5,-3 -0.9,-6.1 -1,-6.8 -0.3,-2 -0.3,-2.3 0.2,-2.5 1.3,-0.4 3.9,1.1 6.8,3.9 1.1,1.1 1.4,1.3 1.6,1.2 l 0.3,-0.1 -0.6,-1.7 c -0.3,-1 -0.9,-2.7 -1.4,-3.9 -0.7,-1.9 -0.8,-2.2 -1,-2.2 0.1,0 -0.4,0.1 -1,0.2 M 96,19.2 c -1,0.4 -6,2.2 -7,2.5 -0.5,0.1 -0.9,0.3 -0.9,0.4 0,0.3 0.3,0.5 0.8,0.6 1.9,0.3 3.5,1.8 4.9,4.7 1,2.1 3.5,8.5 3.3,8.7 0,0 -0.6,-0.3 -1.3,-0.8 -0.7,-0.5 -3.4,-2.3 -6.1,-4.1 -2.7,-1.8 -5.9,-4 -7.2,-4.8 l -2.3,-1.6 -1.6,0.6 c -0.9,0.3 -2.7,1 -4.2,1.5 -1.4,0.5 -2.6,0.9 -2.6,1 0,0.3 0.2,0.4 0.8,0.5 1.8,0.2 2.7,1.1 3.7,3.7 1.2,3.1 4.3,11.9 5,14 1.3,4.4 1.3,6.6 -0.3,8.3 -0.4,0.5 -0.5,1.2 -0.1,1 2.1,-0.9 7.9,-3 8.4,-3 0.7,0 0.2,-0.6 -0.6,-0.8 C 85.6,51 84.4,49 80.5,38.4 c -0.9,-2.6 -1.8,-5 -1.9,-5.4 -0.1,-0.3 -0.2,-0.7 -0.2,-0.7 0,0 2.9,1.9 6.4,4.3 3.5,2.4 7.3,4.9 8.4,5.7 1.1,0.7 2.9,2 4,2.7 5.6,3.8 5.2,3.6 5.7,3.4 0.3,-0.1 0.4,-0.2 0.3,-0.3 0,-0.1 -0.2,-0.6 -0.4,-1.1 -0.2,-0.5 -0.7,-1.8 -1.1,-2.9 -0.4,-1.1 -0.9,-2.4 -1.1,-2.9 -0.2,-0.5 -1,-2.8 -1.8,-5.1 C 94.7,24.8 94.4,22.5 96.4,20 c 1,-1.1 0.8,-1.3 -0.4,-0.8 m 93.1,1 c 0,0.1 0,0.4 0.3,0.7 0.7,1 0.8,0.7 -2.7,10.3 -3.6,10.1 -3.5,9.9 -4.3,11.6 -1,2.1 -2.4,3.6 -3.4,3.6 -0.2,0 -0.5,0.6 -0.4,0.7 0,0 1.9,0.7 4.2,1.4 2.3,0.8 5.7,2 7.7,2.6 5.5,2 7.1,2.5 7.4,2.6 0.2,0.1 5.3,-8.1 5.3,-8.5 0,-0.5 -0.5,-0.3 -2,0.8 -4.8,3.6 -8.6,4.6 -11,2.9 -1.6,-1.2 -1.5,-2.5 1,-9.6 2.4,-6.7 4.5,-12.8 4.8,-13.5 0.4,-1 0.9,-1.6 1.6,-1.9 0.5,-0.2 0.8,-0.4 0.8,-0.6 0,-0.1 -0.8,-0.4 -1.7,-0.6 -1.9,-0.6 -4.1,-1.4 -6.1,-2.2 -1.4,-0.7 -1.4,-0.7 -1.5,-0.3 M 56.9,36.6 c -2.9,2 -6.4,4.3 -7.8,5.1 -1.4,0.9 -2.5,1.6 -2.5,1.7 0,0.3 0.3,0.4 0.7,0.4 1.2,0 1.1,-0.1 6.9,8.6 7.7,11.6 8.1,12.2 7.4,15 -0.3,1 0.1,0.8 2.9,-1.1 2.3,-1.6 4.5,-3.1 13.4,-9.1 0.9,-0.6 1.7,-1.2 1.7,-1.3 0,-0.1 -0.6,-1.7 -1.3,-3.5 -0.7,-1.9 -1.5,-3.9 -1.8,-4.6 -0.5,-1.4 -0.9,-1.5 -1,-0.4 -0.3,7.3 -1.6,10.7 -4.3,12.1 -2.3,1.1 -3.6,0.2 -7.2,-5.3 -2.6,-3.9 -2.4,-3.4 -1.6,-4 2.7,-2 5.2,-2.2 7.6,-0.6 0.8,0.5 0.9,0.6 1.1,0.4 0.3,-0.2 -5.6,-9.2 -5.9,-9.2 -0.4,0 -0.4,0.3 -0.2,1.2 0.5,2 0,3.8 -1.5,5.3 -0.7,0.8 -2.5,2 -2.7,1.9 -0.2,-0.1 -6.3,-9.2 -6.3,-9.4 0,-0.2 1.5,-1.1 2.5,-1.6 2.6,-1.1 5.8,-1 9.7,0.3 1,0.4 0.9,0.3 1.2,0.1 0.2,-0.2 -5,-5.7 -5.4,-5.7 -0.2,0.1 -2.6,1.7 -5.6,3.7 M 225,37.4 c -2,1.4 -11.1,7.9 -15.2,10.8 -6,4.2 -8.4,5.5 -10.4,5.5 -0.5,0 -1.1,0.4 -0.8,0.5 0,0 0.5,0.3 1.2,0.7 1.5,0.8 3.3,2 5,3.1 l 1.4,1 0.2,-0.3 c 0.1,-0.3 0.1,-0.3 -0.1,-0.6 -1.2,-1.3 -0.6,-3.3 1.9,-5.8 1,-1 3.4,-3 3.9,-3.3 0.1,-0.1 0.8,0.3 2.5,1.4 1.3,0.8 2.4,1.5 2.5,1.6 0.1,0.1 -0.8,4.7 -1.4,7 -0.6,2.3 -1.8,3.5 -3.1,3.1 -0.5,-0.1 -0.7,0 -0.7,0.3 0,0.1 0.4,0.4 1,0.7 3.5,2 6.5,3.9 9.1,5.7 l 1,0.7 0.2,-0.3 c 0.2,-0.2 0.1,-0.3 -0.2,-0.7 -1,-1.2 -1.1,-0.3 1.9,-18.5 2.2,-13.4 2.2,-13.5 1.8,-13.5 -0.4,-0.1 -1,0.3 -1.7,0.9 m -6.7,9.6 c -0.4,1.8 -0.8,3.3 -0.8,3.3 -0.2,0 -3.9,-2.4 -3.8,-2.5 0.2,-0.2 5.3,-4.1 5.3,-4.1 0,0 -0.3,1.5 -0.7,3.3 M 88.4,63.1 c -5,1.1 -7.7,5.3 -6.4,10.1 1.4,5.4 8.9,7.7 14.8,4.6 1.4,-0.7 1.3,-0.5 0.6,-2.8 -0.7,-2.2 -0.9,-2.4 -1.1,-1.4 -0.8,3.8 -3.4,5.6 -6.5,4.4 -2.7,-1 -4.2,-5.8 -3.1,-10.1 1.4,-5.5 7.9,-5.8 9.3,-0.4 0.3,1.2 0.5,1 1.1,-0.9 0.7,-2.1 0.7,-2 -0.2,-2.4 -2.6,-1.3 -5.9,-1.7 -8.5,-1.1 m 46.1,0.4 c -0.7,1.4 -5,9.9 -5.6,10.9 -1.2,2.1 -2.2,3.5 -3,3.9 -0.8,0.4 -0.6,0.5 2.4,0.5 2.8,0 3.6,-0.1 2.4,-0.4 -1.6,-0.3 -1.6,-1.7 -0.3,-4.6 l 0.5,-1.2 h 2.4 2.4 l 0.8,1.7 c 1.3,2.8 1.5,3.7 0.5,4 -0.2,0.1 -0.4,0.2 -0.4,0.2 0,0.2 7.7,0.1 7.8,0 0,-0.1 0,-0.1 -0.1,-0.1 -0.8,0 -1.8,-1.6 -5.5,-8.5 -4.1,-7.9 -3.8,-7.4 -4.3,-6.4 m 28.5,5 c -3.9,7.6 -4.7,8.9 -5.9,9.6 -0.9,0.5 -0.7,0.5 2.3,0.6 2.2,0 2.8,0 2.8,-0.1 0,-0.1 -0.1,-0.1 -0.2,-0.1 -0.3,0 -0.7,-0.2 -1.1,-0.6 -0.7,-0.6 -0.5,-1.7 0.6,-4.1 l 0.5,-1.2 h 2.4 2.4 l 0.7,1.6 c 1.4,3 1.6,4.2 0.4,4.2 -0.1,0 -0.2,0.1 -0.2,0.2 0,0.1 0.8,0.2 3.8,0.1 3,0 3.8,0 3.8,-0.2 0,-0.1 -0.1,-0.1 -0.1,-0.1 -0.7,0 -1.7,-1.5 -5.2,-8.2 -3.8,-7 -4,-7.4 -4.1,-7.4 0.1,0 -1.3,2.6 -2.9,5.7 M 99.1,63.3 c 0,0.1 0.2,0.2 0.4,0.3 1,0.5 0.9,0.1 0.9,6.2 0,7.2 0,7.9 -1.2,8.3 -0.9,0.4 -0.6,0.5 3.2,0.5 3.8,0 4.2,0 3.3,-0.4 -1,-0.4 -1.2,-1.1 -1.3,-4.7 l -0.1,-2.6 h 3.5 3.5 l -0.1,2.8 c -0.1,3.5 -0.3,4.1 -1.3,4.5 -0.9,0.4 -0.4,0.4 3.4,0.4 3.9,0 4.1,0 3.2,-0.5 -1.1,-0.5 -1.3,-1.4 -1.3,-8.3 0,-5.8 0,-5.7 0.9,-6.2 1,-0.5 0.7,-0.5 -2.9,-0.5 -3.6,0 -4,0.1 -3,0.5 0.9,0.4 0.9,0.6 0.9,3.7 V 70 h -3.4 -3.4 v -2.7 c 0,-3.1 0.1,-3.3 1,-3.7 0.9,-0.4 0.6,-0.4 -3,-0.4 -1.9,0 -3.2,0 -3.2,0.1 m 19,0.1 c 0,0.1 0.2,0.3 0.5,0.4 0.9,0.4 0.9,0.5 0.9,6.1 0,7 -0.1,7.9 -1.3,8.4 -0.9,0.4 -0.7,0.5 3.3,0.5 3.9,0 4.4,-0.1 3.4,-0.4 -1.3,-0.5 -1.3,-0.7 -1.3,-7.9 v -6 l 0.3,-0.3 c 0.2,-0.2 0.5,-0.4 0.7,-0.4 1,-0.4 0.5,-0.4 -3.1,-0.4 -2.7,-0.2 -3.4,-0.2 -3.4,0 m 23.6,-0.1 c 0,0 0.1,0.2 0.3,0.3 1.1,0.5 1.7,1.7 7.4,13 0.7,1.4 1.3,2.5 1.4,2.5 0.1,0 1.4,-2.5 3,-5.6 3.6,-7.3 4.6,-9 5.8,-9.7 0.9,-0.5 0.7,-0.6 -2.2,-0.6 -2.2,0 -2.7,0 -2.7,0.2 0,0.1 0.2,0.2 0.4,0.2 1.1,0.2 1.4,1.6 0.7,3.4 -0.2,0.6 -2.9,6.4 -3,6.5 0,0 -0.3,-0.2 -0.5,-0.6 -0.2,-0.4 -1.1,-2 -2,-3.6 -2.7,-4.8 -2.8,-5.1 -1.8,-5.6 0.9,-0.4 0.7,-0.4 -3.1,-0.4 -2.1,0 -3.7,0 -3.7,0 m 34.3,0 c 0,0.1 0.2,0.3 0.4,0.4 1,0.5 0.9,0.2 0.9,6.6 0,7 -0.1,7.5 -1.3,7.9 -0.9,0.3 -0.3,0.4 3.3,0.4 3.7,0 4.2,0 3.3,-0.4 -1,-0.4 -1.2,-1 -1.3,-4.6 l -0.1,-2.9 0.9,0.1 c 2.3,0.2 3.2,1.2 4.3,4.7 0.3,0.9 0.6,2 0.8,2.3 l 0.3,0.7 h 1.1 c 0.6,0 1.9,0 2.9,0.1 1.9,0.1 2.3,0 1.5,-0.5 -0.8,-0.4 -1.6,-1.6 -2.4,-3.7 -1,-2.4 -2.2,-3.5 -4.1,-3.8 -0.4,-0.1 -0.4,-0.1 0.7,-0.3 2.8,-0.5 4.1,-1.7 4.1,-3.5 0,-1.9 -1.1,-2.9 -3.8,-3.4 C 185.5,63.2 176,63 176,63.3 m 18,0 c 0,0.1 0.2,0.3 0.5,0.4 1,0.5 0.9,0.3 0.9,6.9 -0.1,6.9 -0.1,7.2 -1.3,7.7 -0.9,0.3 -0.4,0.4 3.4,0.4 4,0 4.3,0 3.4,-0.5 -1.2,-0.5 -1.2,-0.7 -1.3,-7.7 0,-6.7 -0.1,-6.5 0.9,-6.9 1,-0.4 0.7,-0.5 -3,-0.5 -2.7,0.1 -3.5,0.1 -3.5,0.2 m -9.1,1 c 1.7,0.5 2.5,1.7 2.1,3.3 -0.4,1.7 -2.2,2.7 -4.9,2.4 l -0.9,-0.1 V 67 c 0,-2.2 0,-2.9 0.1,-3 0.4,0 3,0.1 3.6,0.3 M 134.1,69 c 0.3,0.7 0.8,1.7 1,2.1 l 0.4,0.7 h -2 c -1.1,0 -2,0 -2,-0.1 0.1,-0.3 1.9,-4 2,-4 -0.1,0 0.2,0.6 0.6,1.3 m 31.3,0.5 c 0.5,1 0.9,1.9 1,2.1 0.1,0.2 0,0.2 -1.9,0.2 -1.5,0 -2,0 -1.9,-0.1 0.2,-0.4 1.9,-4 1.9,-4 0,0 0.4,0.8 0.9,1.8 m 7.4,61.8 c 0,0.3 0,0.4 0.1,0.2 0,-0.1 0,-0.4 0,-0.5 0,-0.1 -0.1,0 -0.1,0.3 m -22.8,5.5 c 0,0.2 0,0.3 0.1,0.2 0,-0.1 0,-0.3 0,-0.4 -0.1,-0.1 -0.1,0 -0.1,0.2 m -31.6,18.4 c 0.3,0.3 0.6,0.6 0.6,0.6 0,0 -0.2,-0.3 -0.5,-0.6 -0.3,-0.3 -0.6,-0.6 -0.6,-0.6 0,0 0.2,0.3 0.5,0.6 m 31.4,3.5 c 0.1,0 0.4,0 0.5,0 0.1,0 0,-0.1 -0.3,-0.1 -0.3,0 -0.4,0 -0.2,0.1 m 37.2,51 -0.5,0.1 1,0.6 c 5.2,3.2 7,6.5 7,12.8 v 2.6 l 1.3,0.8 c 2.1,1.4 5.2,2.7 5.4,2.3 0.4,-0.6 0.4,-5.2 0,-6.9 -1,-4.4 -3.8,-8.8 -7.7,-11.5 -1,-0.6 -4.4,-1.1 -6.5,-0.8 m -3.2,0.8 c -5.2,1.8 -9.2,6.2 -10.5,11.6 -0.3,1.4 -0.3,1.4 0.5,0.2 3.8,-5.5 8,-8.5 13.8,-9.6 0.7,-0.1 1.3,-0.3 1.3,-0.3 0.1,-0.1 -3.5,-2.3 -3.8,-2.3 -0.1,0 -0.7,0.2 -1.3,0.4 m 12.7,1.5 c 4.5,4.6 6.5,10.2 5.7,16.1 -0.2,1.3 -0.3,1.2 1.2,1.2 1.5,0 1.4,0.1 1.5,-1.4 0.9,-6.6 -2.5,-13.2 -8.4,-16.4 -0.5,-0.3 -0.9,-0.5 -1,-0.5 0.1,0.1 0.5,0.5 1,1 m -8.1,1.4 c -6.6,1.2 -11,4.4 -15.1,11.1 l -0.6,0.9 0.1,1.1 c 0.2,2.2 0.5,3.8 1.3,5.6 0.5,1.3 0.5,1.3 0.9,0 2.6,-8 6.8,-12.5 13.3,-14 1.2,-0.3 3.2,-0.6 3.9,-0.6 0.6,0 0.6,0 0.2,-1 -0.7,-1.4 -2.3,-3.4 -2.6,-3.4 0,0.1 -0.7,0.2 -1.4,0.3 m -83.5,0.9 c 0.2,0 0.5,0 0.6,0 0.2,0 0,0 -0.3,0 -0.3,0 -0.5,0 -0.3,0 m 86.5,4.2 c -7.9,0.8 -12.9,5.5 -15.7,14.7 -0.2,0.6 -0.3,1.1 -0.4,1.1 -0.1,0.3 1.9,2.8 3.2,3.8 l 0.7,0.6 0.2,-0.4 c 3.9,-6.4 7.8,-10.1 12.9,-12 l 1.2,-0.5 0.1,-1.3 c 0.1,-2 0,-4.3 -0.4,-5.7 l -0.1,-0.5 h -0.7 c -0.2,0.1 -0.7,0.1 -1,0.2 m -3.2,3.4 c 0.3,0.3 0.4,0.3 0.7,0.2 0.5,-0.2 0.9,0.1 0.5,0.5 l -0.3,0.2 0.4,0.4 c 0.7,0.7 0.3,1 -0.5,0.2 l -0.4,-0.4 -0.6,0.3 -0.5,0.3 0.3,0.3 c 0.6,0.6 0.3,0.8 -0.4,0.3 l -0.4,-0.3 -0.6,0.4 c -0.7,0.4 -0.7,0.4 -0.2,0.9 0.7,0.7 0.3,1 -0.4,0.3 l -0.5,-0.4 -0.6,0.5 c -0.7,0.6 -0.7,0.6 -0.3,0.9 0.3,0.3 0.4,0.5 0.1,0.5 -0.1,0 -0.3,-0.1 -0.5,-0.2 l -0.3,-0.3 -0.5,0.6 -0.5,0.6 0.4,0.4 c 0.6,0.6 0.2,0.8 -0.3,0.3 -0.2,-0.2 -0.4,-0.3 -0.4,-0.2 -0.1,0.1 -0.3,0.3 -0.5,0.6 l -0.4,0.5 0.4,0.4 c 0.2,0.2 0.4,0.5 0.4,0.5 0,0.2 -0.4,0.1 -0.7,-0.2 -0.4,-0.4 -0.4,-0.4 -0.8,0.4 l -0.4,0.7 0.3,0.3 c 0.5,0.5 0.3,0.8 -0.2,0.4 l -0.4,-0.3 -0.1,0.3 c -0.1,0.3 -0.6,0.4 -0.7,0.1 0,-0.1 0,-0.3 0.1,-0.5 0.2,-0.4 0.2,-0.4 -0.1,-0.7 -0.2,-0.2 -0.3,-0.4 -0.3,-0.5 0,-0.2 0.4,-0.2 0.6,0.1 0.2,0.2 0.2,0.2 0.6,-0.4 l 0.4,-0.7 -0.3,-0.3 c -0.5,-0.6 -0.3,-0.9 0.3,-0.4 l 0.4,0.3 0.4,-0.6 0.4,-0.6 -0.3,-0.3 c -0.2,-0.2 -0.3,-0.4 -0.2,-0.5 0.1,-0.3 0.2,-0.2 0.5,0.1 0.4,0.4 0.3,0.4 0.9,-0.3 l 0.5,-0.6 -0.4,-0.4 c -0.7,-0.7 -0.4,-0.9 0.3,-0.3 l 0.4,0.4 0.6,-0.6 0.6,-0.6 -0.4,-0.5 c -0.6,-0.7 -0.3,-1 0.4,-0.3 l 0.4,0.4 0.6,-0.4 0.6,-0.4 -0.3,-0.3 c -0.7,-0.6 -0.4,-0.9 0.3,-0.3 l 0.4,0.3 0.6,-0.3 0.6,-0.3 -0.3,-0.3 c -0.3,-0.5 0.1,-0.7 0.6,-0.2 m 4.8,5 c -1.7,0.6 -4.4,2.1 -5.7,3.2 l -0.4,0.3 0.9,0.9 c 3.1,3 8.1,4.7 13,4.5 l 0.9,-0.1 0.6,-1 c 0.9,-1.4 2.1,-3.9 2.1,-4.4 0,-0.1 -0.5,-0.1 -1.2,-0.1 -2.7,0 -5.2,-0.9 -8,-2.8 -1.2,-0.9 -1.1,-0.8 -2.2,-0.5 m -7.8,5.1 c -1,1 -2.8,3.2 -2.8,3.4 0,0.1 0.8,0.8 1.9,1.6 2.5,1.8 5.9,3.1 9.5,3.8 l 1.1,0.2 1.2,-0.6 c 1.7,-0.9 4.2,-2.7 4.7,-3.5 l 0.2,-0.3 -0.4,0.1 c -0.6,0.1 -3.7,-0.1 -5,-0.4 -3.1,-0.6 -5.8,-2 -8.4,-4.3 l -1.1,-1 -0.9,1 m -4,5 c -0.3,0.5 -0.7,1.1 -0.9,1.5 l -0.4,0.7 0.3,0.2 c 2.7,2.1 8.7,3.2 12.2,2.2 l 0.5,-0.1 -1.5,-0.4 c -3.3,-0.8 -6.5,-2.4 -8.6,-4.1 -0.3,-0.3 -0.7,-0.6 -0.8,-0.6 -0.2,-0.2 -0.3,-0.1 -0.8,0.6"
   inkscape:connector-curvature="0"
   style="clip-rule:evenodd;fill:#cb9c4c;fill-rule:evenodd" />
	<path
   id="path2"
   class="st2"
   d="m 135.1,97.5 c -0.4,0.3 -0.2,0.8 1.5,3.1 1.7,2.3 1.4,3 -0.9,1.9 -3.9,-1.9 -4.8,-1.7 -3.1,0.8 1.2,1.9 1.5,2.5 1.5,3.3 0,1 0.1,0.9 -3.1,1.6 -5.1,1.2 -9.3,3.9 -13.3,8.3 l -0.8,0.9 -0.6,-0.3 c -0.6,-0.3 -2,-1.3 -2.9,-2.1 -0.5,-0.4 -2.7,-2.4 -3.1,-2.8 -0.9,-0.9 -1.3,0 -0.7,1.7 0.7,2.2 2.6,5 5,7.5 l 1,1 -0.2,1.3 c -0.7,4.2 -1,7 -0.9,9.6 0.1,2.2 0,2.4 -0.5,1.7 -1.6,-2.3 -2.9,-1.9 -2.1,0.6 0.4,1.4 0.5,2.4 0.3,4.1 -0.5,3.8 1.3,8.9 3.4,10.1 0.7,0.4 0.8,0.5 1.2,2.1 0.4,1.8 0.6,2.1 1.9,3.5 0.6,0.7 1.2,1.3 1.2,1.4 0.3,1 -1.5,2.1 -4.2,2.5 -3.2,0.4 -4.3,0.9 -7.1,2.7 -0.8,0.5 -1.9,1.3 -2.6,1.7 -5.6,3.4 -6.3,10.4 -1.5,15.5 0.6,0.7 0.7,0.4 -0.3,2.7 -0.5,1.1 -1,2.3 -1.2,2.7 -0.7,1.7 -0.5,2.7 1.4,5.2 2,2.6 3,3.4 5.5,3.6 l 0.7,0.1 0.1,-1.3 c 0.2,-4.4 1.5,-8.4 3.1,-10.5 1.6,-2 1.9,-3.6 1.3,-6.8 -0.2,-1.2 -0.2,-4.1 0,-4.3 0.5,-0.5 1,0.9 1.1,3.2 0.1,2.8 0.4,2.9 2.3,1.6 1.5,-1.1 1.9,-1.6 2.2,-3.3 0.6,-3.2 0.9,-4.4 1.3,-4.3 0.5,0.1 0.4,1.1 -0.2,4 -0.7,3 -0.6,3.1 3.7,5.6 1.1,0.6 1.3,1 1,1.3 -0.9,0.9 -3.5,-0.1 -6,-2.3 l -0.6,-0.5 -0.6,0.9 c -0.3,0.5 -1.1,1.5 -1.7,2.3 -4.3,5.5 -5.9,10.4 -5.4,16.5 0.3,3.7 2.9,6.1 11,9.8 2.8,1.3 3.6,1.7 6.3,3 4.6,2.2 5.5,2.5 8.8,2.5 2.6,0 3.6,-0.2 5.7,-0.9 1.5,-0.5 1.9,-0.5 1,0.2 -2,1.4 -4.5,2.1 -8.1,2.1 h -1.4 l 0.3,0.6 c 1.7,3.3 6.4,6.7 12.2,8.9 1.1,0.4 1.2,1 0.3,1 -0.5,0 -1.3,-0.3 -2.3,-1 l -0.4,-0.3 0.2,0.5 c 0.9,1.9 1.9,3.8 2.6,4.6 1.2,1.6 1.2,1.8 -0.6,3.3 -2.4,1.9 -2.7,2.2 -3.6,3.1 -4.1,4.3 -3.1,9.6 1.9,10.9 2.9,0.7 4.9,-0.2 5.1,-2.3 0.1,-0.9 0.3,-2 0.5,-2.3 0.1,-0.1 0.1,0.7 0.1,1.7 0,4.2 1.1,5.5 5.1,5.5 3.3,0 3.8,-0.6 3.5,-4.5 -0.1,-0.9 -0.1,-1.7 -0.1,-1.7 0,0 0.8,2.4 1,3.2 0.9,3.6 6.4,1.9 6.7,-2.1 0.1,-1.4 -0.8,-4.6 -2.1,-7.4 -1.9,-4.2 -3.2,-8.4 -3.4,-11.3 l -0.1,-1.3 -0.8,2.6 c -1.4,4.3 -2.3,5.4 -4.3,5.2 -1.7,-0.2 -2.8,-1.2 -2.8,-2.7 0,-1.2 1.4,-6.7 2.6,-10.1 0.8,-2.4 0.8,-2.8 -0.9,-7.1 -1.6,-4.1 -2.6,-7.5 -2.9,-10.1 -0.3,-2.4 -0.3,-7.6 0.1,-9.4 0.8,-3.8 0.7,-4.4 -1,-7.8 -1.5,-3 -1.9,-3.3 -3.6,-2.4 -2.5,1.2 -7.7,1.7 -9.7,0.9 -1.3,-0.5 -1.1,-0.8 0.8,-1 4.2,-0.5 9.1,-1.7 11.7,-2.8 0.2,-0.1 0.2,0.1 0.3,0.9 0.3,2.4 1.1,3.7 4.1,6.7 2.4,2.4 2.6,2.8 2.9,4.6 0.2,1.5 0.8,2.5 1.9,3.5 l 0.3,0.3 -0.4,0.6 c -2.1,2.9 -0.7,7.4 1.9,6.1 1.8,-0.9 2.4,-2.1 1.6,-3.1 -0.9,-1.2 -0.9,-2.3 0.1,-3.4 0.3,-0.4 0.5,-0.7 0.5,-1 0.6,-4.6 1,-6.3 1.8,-9.2 0.7,-2.5 0.7,-2.9 0,-4.3 -2.5,-4.4 -4.2,-8.9 -4.5,-11.8 -0.2,-2.2 -0.6,-3.4 -1.5,-4.4 -0.9,-1 -0.8,-1.2 1.7,-4.1 0.9,-1 1,-1.3 1.2,-2.4 0.1,-0.4 1.2,-1.5 3.1,-3.1 2.5,-2.1 5,-5.8 6.7,-10 1,-2.6 1,-2.7 -1.5,-1.1 -0.5,0.3 -1.4,0.8 -1.9,1.2 -1.1,0.7 -1.1,0.7 -0.8,0.2 1.8,-3.1 2.9,-5.5 3.3,-7.2 1,-4.2 0.9,-6.3 -0.4,-4.9 -0.9,0.9 -1.1,0.3 -0.9,-1.9 0.4,-3.1 0.4,-4.4 -0.2,-5.8 -1,-2.7 -1,-4 0.1,-5.8 1.8,-2.9 3.4,-7.4 2.9,-8.2 -0.3,-0.3 -0.7,-0.1 -2.1,1.2 -6.2,5.9 -5.9,5.6 -6.4,5.6 -0.3,0 -1.6,-1.2 -2.4,-2.2 -4.6,-5.8 -6.8,-8 -12.2,-12.1 -2.3,-1.7 -3.5,-2.5 -4.3,-2.6 l -0.4,-0.1 0.2,0.6 c 0.3,0.7 0.6,1.9 0.5,1.9 0,0 -0.3,-0.3 -0.6,-0.7 -1.4,-1.9 -4.3,-4.1 -3.7,-2.9 0.8,1.6 0.7,1.8 -0.4,1.2 -2.4,-1.2 -6.2,-2 -7,-1.5 m 36.9,14.7 c -1.5,4.4 -4.7,9.4 -7.2,11.3 -1.5,1.1 -2.6,0.3 -2.6,-1.8 0,-1.6 0.3,-1.9 5.8,-6.9 1.6,-1.5 3.3,-2.9 3.7,-3.3 0.7,-0.8 0.7,-0.7 0.3,0.7 m -58.9,3.7 c 1.3,1.1 2.2,1.7 3.9,2.6 3.5,1.8 4.8,3.2 3.7,4.3 -1.3,1.4 -7.4,-3.4 -9.2,-7.1 -0.7,-1.8 -0.6,-1.8 1.6,0.2 m 17.9,13.2 c 0.3,0.3 0.1,0.8 -0.5,1.6 -1.4,1.6 -2,3 -2.2,5.6 -0.2,1.7 -0.2,1.8 0.2,1.2 0.2,-0.3 0.7,-1 1.1,-1.6 0.8,-1.2 1.3,-2.1 1.5,-2.7 0.2,-0.7 0.7,-1 1.1,-0.5 0.1,0.2 0.2,0.5 0.1,1.7 -0.1,1.6 0,1.9 0.8,3.8 0.9,2.2 1.8,3.6 3.1,4.9 0.9,0.8 4,3.3 4.1,3.2 0,0 0,-0.7 -0.1,-1.6 -0.5,-5 -0.2,-9.8 0.7,-11.1 0.9,-1.3 1.5,-1.1 2.5,0.9 1.4,2.7 1.7,3 3.5,4.6 0.7,0.6 1.4,1.2 1.6,1.4 0.2,0.2 0.3,0.3 0.4,0.3 0,0 0,-1.4 0,-3.2 0,-3.6 0.1,-4.3 0.9,-4.4 0.7,-0.1 0.7,-0.2 0.5,3.3 -0.1,1.1 0.1,3.3 0.4,4.1 0.4,1.4 0.2,2.2 -0.6,2 -1.4,-0.2 -6.1,-4.4 -7.4,-6.5 -0.4,-0.6 -0.7,-1.1 -0.7,-1.1 -0.7,-0.1 -0.9,8.9 -0.2,11.6 0.7,2.6 -0.4,2.4 -4.4,-0.8 -3.4,-2.7 -6.5,-7.3 -6.5,-9.6 0,-0.6 -0.8,0.8 -1.5,2.6 -1.5,3.9 -3.4,-0.1 -2.3,-4.9 0.5,-2.9 2.9,-5.9 3.9,-4.8 m -17.1,8.2 c 2,2.4 3.8,10.2 2.4,10.7 -0.5,0.2 -0.7,-0.2 -1.2,-2.9 -0.6,-3 -0.9,-4 -1.9,-6.3 -0.6,-1.5 -0.1,-2.5 0.7,-1.5 m 69.2,2.6 c -6.8,6.9 -7.4,7.9 -5.9,9.9 1.1,1.5 1.2,1.6 0.5,3.6 -0.3,0.8 -0.7,2.4 -0.9,3.4 -0.7,2.6 -1.7,5.7 -1.9,5.7 -0.6,0 -1.4,-3 -1.5,-5.5 -0.1,-2.2 0.1,-2.6 1.7,-3.7 1.1,-0.7 1.2,-0.9 1,-1.9 -0.2,-0.9 -1.5,-5.8 -1.7,-6.2 -0.4,-0.9 -1.7,0.3 -3.8,3.4 -0.3,0.5 -1,1.4 -1.4,2 -1.3,1.7 -1.6,2.5 -1,2.6 0.6,0.1 0.6,0.3 0.5,3.9 -0.2,5.3 0.6,10.3 2,11.9 1,1.2 1.1,1.1 -1.6,9.7 -2,6.4 -3.3,11.3 -3.3,11.3 0,0 0.3,-0.1 0.6,-0.4 1,-0.7 3.1,-1.4 5.3,-1.5 l 0.9,-0.1 0.2,-0.5 c 0.6,-1.4 1.8,-5.4 2.7,-9.2 1.4,-5.7 1.5,-5.9 3.5,-6.9 4.3,-2.2 7.5,-5.8 8.5,-9.2 0.6,-2.3 1.3,-3 2.5,-2.6 1.1,0.4 1.3,-0.3 0.7,-2.4 -0.3,-1 -0.5,-2.2 -0.8,-5.1 -0.3,-2.3 -0.9,-2.8 -1.9,-1.3 -1.1,1.6 -2.2,3 -3.3,4.1 -1.7,1.8 -1.9,2.3 -0.8,3.1 1,0.8 0.6,2 -1.5,4 -2.6,2.5 -3.5,1.9 -2.1,-1.3 0.8,-1.8 1.6,-4.2 2,-6 0.6,-2.4 1.1,-3.1 2.4,-3.4 0.8,-0.2 1.1,-0.4 1.2,-0.9 0.1,-0.6 -0.2,-4.8 -0.4,-6.4 -0.1,-0.8 -0.3,-2.2 -0.5,-3.1 -0.2,-2.7 -0.2,-2.7 -1.9,-1 m -12.3,3.6 c 0.1,0.4 -0.2,0.9 -0.8,1.5 -0.3,0.3 -1.3,1.4 -2.2,2.6 -2.6,3.1 -3.2,3.6 -3.2,2.3 0,-2 6,-8 6.2,-6.4 m -40.6,2.3 c 1.4,1.3 3.1,3 3.9,3.7 3.4,3.1 3.5,3.3 1.2,4.4 -1.8,0.9 -3.2,0.5 -5.3,-1.6 -2,-1.9 -3,-4 -2.8,-6.1 0.1,-0.7 0.5,-3 0.6,-3 -0.1,0.2 1,1.3 2.4,2.6 m 23.3,-0.4 c 1,3.7 -0.8,8.1 -3.9,9.5 -2.7,1.2 -4.7,1.2 -6,-0.1 -1.5,-1.4 -1.3,-2.1 0.7,-3.6 3.5,-2.4 6.9,-4.8 8.4,-5.9 0.6,-0.5 0.6,-0.5 0.8,0.1 m -30.3,13.4 c 0.2,0.1 0.7,0.5 1.1,0.9 3.3,3 7.7,4.8 13.3,5.4 4.3,0.5 6.7,0.1 15.1,-2.8 3.6,-1.2 4.7,-1.4 4.9,-0.9 0.3,0.9 -5.2,3.1 -10.1,4.1 -7.6,1.6 -12.4,1.3 -18.1,-1.1 -2.7,-1.1 -6.1,-3.6 -7.1,-5.1 -0.7,-0.9 -0.1,-1.2 0.9,-0.5 m 28.1,-0.1 c 1.3,0.3 0.4,1 -1.8,1.3 -1.2,0.2 -2.2,0.5 -3.3,1.1 -1.3,0.7 -1.8,0.5 -1.7,-0.4 0,-1.2 4.6,-2.5 6.8,-2 m 41.4,15.5 c -2.6,0.9 -4.8,1.7 -5.5,1.9 -1,0.3 -0.9,0.3 0.2,1.4 1.2,1.1 1.2,1.1 0.3,1.6 -5.1,2.6 -9.8,6.8 -11.5,10.1 -0.4,0.8 -0.4,0.7 -0.1,1.5 0.2,0.3 0.4,0.9 0.5,1.2 l 0.3,0.6 0.8,-1.4 c 1.2,-2 1.6,-2.6 2.7,-3.8 2.6,-2.8 5.4,-5 8.6,-6.6 1.3,-0.7 1.2,-0.7 2.4,0.4 0.6,0.5 1.1,0.9 1.1,0.9 0.1,0 0.2,-0.1 0.4,-2 0.3,-2.3 0.7,-3.6 1.5,-4.9 0.9,-1.4 0.5,-1.7 -1.7,-0.9 m -67.2,11.1 c 1.1,0.6 0.8,2.4 -0.4,3.2 -1.3,0.8 -2.8,0 -2.7,-1.5 0.2,-1.3 2,-2.3 3.1,-1.7 m 44.5,4.3 c -3,0.8 -4.9,2.5 -5.2,4.7 -0.5,3.1 6.9,5.4 9.6,2.9 1.3,-1.2 1.7,-5.2 0.6,-6.7 -0.8,-0.9 -3.2,-1.4 -5,-0.9 m 3.9,9 c -1.5,0.9 -4.6,1.1 -6.9,0.4 -2.5,-0.7 -3.9,0 -3.7,1.7 0.1,0.8 2.6,2.2 4.7,2.4 3.2,0.4 6.2,-0.7 7.3,-2.8 0.9,-1.8 0.2,-2.7 -1.4,-1.7 m -11.9,1.6 c -0.1,0.1 -0.3,0.1 -0.4,0.1 -0.1,0 -0.6,0.2 -1.1,0.3 -2,0.8 -3.5,0.9 -5.3,0.3 -1.3,-0.4 -1.2,-0.5 -0.9,0.8 0.3,1.3 0.2,1.3 2.8,1.3 3.5,0 5.1,-0.7 5.1,-2.2 0,-0.4 0,-0.7 0,-0.7 -0.1,0 -0.1,0.1 -0.2,0.1 m -1.1,3.2 c -3,1.9 4.7,5.6 9,4.4 2.2,-0.6 3.4,-1.8 3.4,-3.3 0,-0.6 -0.1,-0.7 -1.3,-0.4 -1.9,0.4 -5,0.2 -7.4,-0.5 -1.3,-0.5 -3.1,-0.5 -3.7,-0.2 m -43.7,2.7 v 1.7 l -0.8,2.5 c -0.5,1.4 -0.9,2.8 -1,3.2 -0.4,2.3 -0.6,2.4 -2.3,1.8 -3.3,-1.1 -11.3,-1.3 -14.2,-0.3 -3,1 -3.6,1.6 -3.6,3.8 0,2.1 0.5,2.6 1.6,1.7 0.7,-0.6 1.9,-1.3 2.1,-1.3 0.3,0 0.1,0.4 -0.6,1 -1.9,1.5 -1.4,5.3 0.8,6.4 0.5,0.3 0.6,0.2 1.5,-0.8 1.6,-1.6 3.2,-2.5 4.6,-2.5 1.2,0 1.1,0.4 -0.2,0.6 -2.1,0.3 -4.8,2.7 -4.8,4.2 0,2.4 2.7,3.2 8.8,2.4 2.1,-0.3 3,-0.4 6.4,-0.7 1.1,-0.1 2.6,-0.3 3.4,-0.4 1.7,-0.2 4.2,-0.5 5.6,-0.6 0.6,-0.1 1.6,-0.1 2.4,-0.2 6.4,-0.3 8.9,-1.6 10.4,-5 1,-2.2 0.1,-3.6 -3.9,-6 -1.2,-0.7 -1,-0.8 -1.8,0.4 -0.8,1.2 -1.3,1.9 -1.6,1.9 -0.4,0 -0.2,-0.5 0.5,-1.5 1.1,-1.6 3.5,-5.5 3.4,-5.6 0,0 -3.7,-1.9 -8.3,-4.1 l -8.3,-4.1 -0.1,1.5 m 44.1,2.1 c -0.9,1.3 -2.5,6.2 -4.8,14.1 -1.3,4.3 -1.2,4.7 0.2,5.4 1.5,0.7 2.1,0.3 2.9,-1.9 0.4,-1.1 1.8,-4.3 2.4,-5.7 0.2,-0.4 0.6,-1.3 0.9,-1.9 0.3,-0.6 0.7,-1.5 0.9,-1.9 0.2,-0.5 0.6,-1.2 0.8,-1.8 0.2,-0.5 0.5,-1.1 0.6,-1.3 0.5,-1.1 1.5,-3.8 1.4,-3.9 0,0 -0.8,-0.2 -1.7,-0.4 -0.9,-0.2 -2,-0.5 -2.4,-0.7 -0.9,-0.4 -1,-0.4 -1.2,0"
   inkscape:connector-curvature="0"
   style="clip-rule:evenodd;fill:#040404;fill-rule:evenodd" />
	<path
   id="path3"
   class="st3"
   d="m 36.3,87 c 0,99.1 0.1,121.5 0.4,123.4 2.1,12.8 10.8,24.7 23.7,32.5 11.9,7.1 30.2,12.4 47.9,13.8 9,0.7 13.9,1.9 18.8,4.5 6.1,3.2 10.6,7.8 13.8,14.1 l 0.6,1.3 v -15.3 c 0,-8.4 0,-15.3 0,-15.3 0,0 0.4,0.2 0.9,0.5 2,1.3 3.9,1.7 6.3,1.3 l 0.8,-0.1 0.8,0.7 c 3.1,2.6 8.6,3.1 11.5,1 0.3,-0.2 0.4,-0.2 1.2,-0.1 2.4,0.4 5.5,-1.3 6.9,-3.7 1.8,-3.1 1.6,-6 -1.1,-11.8 -1.8,-3.8 -3.4,-8.8 -3.6,-11.6 l -0.1,-1.3 0.7,-1.5 c 1.5,-3.3 2.3,-5.3 2.8,-6.4 l 0.4,-1.2 0.5,-0.1 c 4.8,-0.9 6.9,-2.9 6.9,-6.6 0,-0.6 0,-0.7 0.6,-1.5 0.6,-0.8 1.2,-1.8 1.5,-2.7 0.1,-0.3 0.2,-1.2 0.3,-2.4 0.3,-5.3 3,-9.1 9.9,-13.8 l 0.9,-0.6 0.5,0.4 c 1.7,1.4 3.2,1.5 4.7,0.1 0.8,-0.8 1,-1.1 1.2,-3.5 0.3,-2.5 0.5,-3.3 1.2,-4.4 1.7,-2.7 0.9,-5.4 -1.8,-6.1 -1.2,-0.3 -2.1,-0.1 -4.8,0.9 -1.2,0.4 -2.9,1 -3.7,1.3 -3.5,1.1 -4.3,2.2 -3.8,4.7 l 0.1,0.5 -1.4,1 c -0.8,0.5 -1.8,1.3 -2.3,1.7 -1.1,0.9 -1,0.9 -0.9,0.2 0.1,-0.3 0.2,-1.5 0.2,-2.7 0.2,-3.2 0.6,-4.2 1.9,-4.2 0.6,0 5.1,-3.4 6.7,-5 1.4,-1.5 2,-2.4 3.6,-5.7 0,-0.1 0.3,-0.2 0.6,-0.3 1.7,-0.3 3,-1.7 3.1,-3.5 0.1,-0.8 -0.1,-1.7 -1,-7 -0.7,-3.9 -2.2,-6.3 -3.8,-6.3 -0.2,0 -0.3,-0.1 -0.3,-0.6 -0.7,-6 -1.8,-9.7 -3,-10.2 -1.8,-0.8 -2.9,-0.3 -6.4,2.9 -1.3,1.2 -2.5,2.3 -2.8,2.5 l -0.4,0.4 v -0.9 c 0,-1.1 -0.2,-1.6 -1,-2.5 -0.9,-0.9 -0.9,-1 -0.4,-3.5 0.7,-3.6 0.6,-5.4 -0.6,-6.6 l -0.5,-0.5 v -1.5 c 0,-1.7 -0.1,-2.4 -0.6,-3.6 -0.9,-2.5 -0.9,-2.3 1,-5.8 1.8,-3.3 2.6,-7.6 1.7,-9.3 -0.7,-1.4 -3,-2.1 -4.6,-1.4 -0.9,0.4 -1.4,0.8 -3.8,3.2 -1.1,1.1 -2.2,2.2 -2.4,2.3 l -0.3,0.3 -0.4,-0.4 c -0.2,-0.2 -1.1,-1.3 -1.9,-2.3 -5.5,-6.7 -14.1,-13.3 -17.2,-13.3 -0.2,0 -0.4,-0.1 -0.5,-0.2 -0.4,-0.4 -2,-1.1 -3.3,-1.3 l -0.4,-0.1 v -7.5 -7.5 l -2.4,0.1 c -2,0.1 -2.4,0.1 -2.4,-0.1 0,-0.1 0.2,-0.2 0.4,-0.3 1,-0.3 0.9,-1.3 -0.5,-4 l -0.8,-1.7 h -2.4 -2.7 l -0.5,1.2 c -1.3,2.9 -1.2,4.3 0.3,4.6 1.2,0.2 0.4,0.4 -2.4,0.4 -3,0 -3.2,0 -2.4,-0.5 0.8,-0.4 1.8,-1.8 3,-3.9 0.5,-1 4.9,-9.5 5.6,-10.9 0.5,-1 0.1,-1.6 4.8,7.3 1.1,2.1 2.1,3.8 2.1,3.8 0,0 0,-7.2 0,-16 v -16 l -2,0.1 c -1.1,0 -3.4,0.1 -5.2,0.1 l -3.2,0.1 v -0.3 c 0,-0.2 0.2,-0.5 0.6,-0.8 1.8,-1.7 1.9,-3 1.9,-16.6 v -9.2 l -0.3,-0.6 c -0.2,-0.3 -0.4,-0.7 -0.7,-0.8 -0.5,-0.3 -0.6,-1 -0.2,-0.9 0.1,0 2.2,0.1 4.7,0.1 l 4.5,0.1 V 8.4 3.2 H 88.9 36.3 V 87 M 125,16.6 c 0.4,1.2 1,3 1.4,3.9 l 0.6,1.7 -0.3,0.1 c -0.2,0.1 -0.5,-0.1 -1.6,-1.2 -2.9,-2.8 -5.6,-4.3 -6.8,-3.9 -0.5,0.2 -0.5,0.5 -0.2,2.5 0.1,0.7 0.6,3.7 1,6.8 2,13.7 2.5,15.3 4.5,16.4 0.2,0.1 0.4,0.3 0.4,0.4 0,0.1 0,0.2 0.1,0.3 0.1,0.1 -0.1,0.2 -0.7,0.3 -2.9,0.3 -7.5,1 -9.9,1.5 l -1.1,0.2 -0.1,-0.3 c 0,-0.2 0,-0.4 0.3,-0.7 1.5,-1.7 1.5,-3.6 0.3,-11.5 -2.3,-15.5 -2.1,-14.6 -2.7,-14.6 -1.4,0 -4,2.9 -5.8,6.5 -0.4,0.8 -0.5,0.9 -0.8,0.9 h -0.3 l 0.1,-1.1 c 0,-0.6 0.1,-2.5 0.2,-4.2 0.1,-1.7 0.2,-3.1 0.2,-3.1 0,0 1.1,-0.2 11,-1.7 4,-0.6 7.6,-1.1 8.2,-1.2 0.6,-0.1 1.1,-0.2 1.2,-0.2 0.1,0 0.2,0.3 0.8,2.2 m 15.6,-1.7 c -0.1,0 -0.1,1.3 -0.1,5.7 v 5.6 l 0.3,0.1 c 0.7,0.2 0.7,0.7 0.7,-5.7 v -5.8 h -0.3 c -0.3,0.1 -0.5,0.1 -0.6,0.1 M 97,19.1 c 0.1,0.2 -0.1,0.4 -0.4,0.9 -2,2.5 -1.7,4.8 2.4,16.1 0.8,2.3 1.6,4.6 1.8,5.1 0.2,0.5 0.7,1.8 1.1,2.9 0.4,1.1 0.9,2.4 1.1,2.9 0.2,0.5 0.4,1 0.4,1.1 0.1,0.1 0,0.2 -0.3,0.3 -0.5,0.1 -0.1,0.4 -5.7,-3.4 -1.1,-0.7 -2.9,-2 -4,-2.7 -1.1,-0.7 -4.9,-3.3 -8.4,-5.7 -3.5,-2.4 -6.4,-4.3 -6.4,-4.3 0,0 0.1,0.3 0.2,0.7 0.1,0.3 1,2.8 1.9,5.4 3.8,10.6 5.1,12.5 8.2,13.2 0.8,0.2 1.2,0.8 0.6,0.8 -0.5,0 -6.3,2.1 -8.4,3 -0.4,0.2 -0.3,-0.6 0.1,-1 1.5,-1.7 1.6,-3.9 0.3,-8.3 -0.6,-2.1 -3.8,-11 -5,-14 -1,-2.5 -2,-3.5 -3.7,-3.7 -0.6,-0.1 -0.8,-0.2 -0.8,-0.5 0,-0.1 1.1,-0.5 2.6,-1 1.4,-0.5 3.3,-1.1 4.2,-1.5 l 1.6,-0.6 2.3,1.6 c 1.3,0.9 4.5,3 7.2,4.8 2.7,1.8 5.4,3.7 6.1,4.1 0.7,0.5 1.2,0.8 1.3,0.8 0.1,-0.1 -2.4,-6.6 -3.3,-8.7 -1.3,-2.9 -3,-4.5 -4.9,-4.7 -0.5,-0.1 -0.8,-0.3 -0.8,-0.6 0,-0.1 0.4,-0.2 0.9,-0.4 1,-0.3 6,-2.1 7,-2.5 0.6,-0.4 0.8,-0.4 0.8,-0.1 m 43.6,9 c -0.3,0.3 0,8.9 0.4,10.2 0.5,1.5 0.5,1.3 0.5,-4.6 V 28 H 141 c -0.2,0.1 -0.4,0.1 -0.4,0.1 m -75.3,7.7 c 2.6,2.6 2.8,2.8 2.5,2.9 -0.3,0.2 -0.2,0.2 -1.2,-0.1 -3.8,-1.3 -7.1,-1.4 -9.7,-0.3 -1,0.4 -2.5,1.4 -2.5,1.6 0,0.2 6.2,9.3 6.3,9.4 0.2,0.1 2,-1.2 2.7,-1.9 1.5,-1.5 2,-3.3 1.5,-5.3 -0.2,-0.9 -0.1,-1.3 0.2,-1.2 0.4,0 6.2,9.1 5.9,9.2 -0.2,0.1 -0.3,0.1 -1.1,-0.4 -2.4,-1.6 -4.9,-1.4 -7.6,0.6 -0.8,0.6 -1,0.2 1.6,4 3.6,5.4 5,6.4 7.2,5.3 2.8,-1.4 4,-4.8 4.3,-12.1 0.1,-1.1 0.5,-1 1,0.4 0.2,0.6 1,2.7 1.8,4.6 0.7,1.9 1.3,3.5 1.3,3.5 0,0.1 -0.8,0.6 -1.7,1.3 -8.9,6 -11.1,7.5 -13.4,9.1 -2.8,2 -3.1,2.1 -2.9,1.1 0.7,-2.7 0.4,-3.4 -7.4,-15 -5.8,-8.7 -5.7,-8.6 -6.9,-8.6 -0.5,0 -0.7,-0.2 -0.7,-0.4 0,-0.1 1.1,-0.8 2.5,-1.7 1.4,-0.9 4.9,-3.2 7.8,-5.1 2.9,-2 5.4,-3.6 5.4,-3.6 0.2,-0.1 1.5,1.2 3.1,2.7 M 93.4,63 c 1.8,0.3 4,1.3 4,1.7 0,0.1 -0.2,0.9 -0.5,1.9 -0.6,2 -0.8,2.1 -1.1,0.9 -1.4,-5.4 -7.9,-5.1 -9.3,0.4 -1.1,4.3 0.4,9 3.1,10.1 3.1,1.2 5.8,-0.6 6.5,-4.4 0.2,-1.1 0.4,-0.9 1.1,1.4 0.8,2.3 0.8,2.1 -0.6,2.8 -6,3.1 -13.4,0.8 -14.8,-4.6 C 80.3,66.7 86,61.6 93.4,63 m 12.7,0.3 c 0,0.1 -0.2,0.2 -0.5,0.3 -0.9,0.4 -1,0.6 -1,3.7 V 70 h 3.4 3.4 v -2.7 c 0,-3.1 -0.1,-3.3 -0.9,-3.7 -1,-0.4 -0.7,-0.5 3,-0.5 3.7,0 3.9,0 2.9,0.5 -0.9,0.4 -0.9,0.4 -0.9,6.2 0,6.9 0.1,7.8 1.3,8.3 0.9,0.4 0.7,0.5 -3.2,0.5 -3.8,0 -4.2,-0.1 -3.4,-0.4 1,-0.4 1.2,-1 1.3,-4.5 l 0.1,-2.8 h -3.5 -3.5 l 0.1,2.6 c 0.1,3.5 0.3,4.2 1.3,4.7 0.9,0.4 0.6,0.4 -3.3,0.4 -3.9,0 -4.2,0 -3.2,-0.5 1.1,-0.5 1.2,-1.2 1.2,-8.3 0,-6.2 0,-5.7 -0.9,-6.2 -0.8,-0.4 -0.6,-0.5 3,-0.5 2,0.1 3.3,0.1 3.3,0.2 m 19,0.1 c 0,0.1 -0.2,0.2 -0.4,0.3 -0.2,0.1 -0.5,0.3 -0.7,0.4 l -0.3,0.3 v 6 c 0,7.1 0,7.4 1.3,7.9 0.9,0.3 0.4,0.4 -3.4,0.4 -4,0 -4.3,0 -3.3,-0.5 1.1,-0.5 1.3,-1.5 1.3,-8.4 0,-5.6 0,-5.7 -0.9,-6.1 -1.1,-0.5 -0.7,-0.5 3,-0.5 2.6,0 3.4,0 3.4,0.2 m 7.3,6.2 c -0.5,1.1 -0.9,2 -1,2.1 0,0.1 0.8,0.1 2,0.1 h 2 L 135,71.1 c -0.2,-0.4 -0.6,-1.3 -1,-2.1 -0.3,-0.7 -0.6,-1.3 -0.7,-1.3 -0.1,0 -0.4,0.9 -0.9,1.9 m 6.2,28 c 1.2,0.3 2.2,0.7 3.2,1.2 1,0.6 1,0.5 0.5,-0.8 -0.4,-0.8 -0.3,-0.9 0.3,-0.7 0.8,0.3 2.1,1.5 3.3,3 0.3,0.4 0.6,0.7 0.6,0.7 0.1,-0.1 -0.3,-1.4 -0.6,-2 l -0.2,-0.4 0.4,0.1 c 1.2,0.2 3,1.4 6.7,4.4 3.9,3.1 5,4.3 9.3,9.4 3,3.6 3,3.6 4.7,1.9 0.7,-0.6 1.3,-1.2 1.3,-1.3 0,-0.1 0.9,-0.9 1.9,-1.8 1,-0.9 2,-1.9 2.3,-2.2 2.4,-2.2 1.4,2.8 -1.5,7.7 -1.1,1.8 -1.2,2.9 -0.5,4.9 0.8,2.3 1,3.8 0.6,6.3 -0.4,2.4 -0.2,3.2 0.6,2.4 1.4,-1.4 1.7,0 0.7,4.5 -0.3,1.6 -1.6,4.4 -3,6.8 -0.3,0.5 -0.5,0.9 -0.5,0.9 0,0 0.7,-0.4 1.6,-1 3.4,-2.2 3.6,-2.2 3,-0.4 -1.5,4.5 -4.4,8.9 -7.3,11.3 -1.8,1.5 -2.7,2.3 -2.8,2.7 -0.3,1.2 -0.4,1.5 -1.3,2.6 -2.4,2.9 -2.5,3 -1.6,4 0.8,0.9 1.2,2.1 1.5,4.9 0.3,2.5 1.8,6.4 4.5,11.6 0.6,1.1 0.6,1.6 0.1,3.3 -1,3.3 -1.5,5.7 -1.9,9.2 -0.1,1 -0.2,1.2 -0.5,1.7 -1,1.3 -1,2.2 -0.3,3.3 0.8,1.2 0.8,1.5 -0.3,2.5 -1.2,1.1 -2.5,1.5 -3.2,0.8 -1.4,-1.3 -1.4,-4.4 0,-6.1 l 0.3,-0.4 -0.7,-0.8 c -0.9,-1 -1.3,-1.8 -1.4,-2.7 -0.2,-2.1 -0.5,-2.5 -2.9,-5 -3,-3.1 -3.7,-4.2 -4.1,-7.1 -0.1,-0.4 -0.1,-0.4 -0.3,-0.4 -2.7,1.2 -8.1,2.4 -12,2.8 -1.6,0.2 -1.4,0.7 0.6,1.1 2.1,0.4 6.6,-0.2 8.8,-1.1 0.9,-0.4 1.8,-0.5 2.2,-0.1 0.6,0.6 2.4,4 2.8,5.4 0.2,0.7 0.2,2.6 0.1,3.4 -0.4,2 -0.5,2.6 -0.6,4 -0.4,5.8 0.7,11.2 4,19.4 0.7,1.7 0.7,2.7 0,4.7 -0.9,2.9 -1,3.3 -2.3,8.1 -0.7,2.9 -0.3,4 2.1,4.6 1.7,0.5 3.1,-0.7 4,-3.2 0.1,-0.3 1.2,-3.7 1.4,-4.4 0.2,-0.6 0.3,-0.2 0.3,1.2 0.1,3 0.8,5 3.7,12.3 2.2,5.3 2.3,7.3 0.4,9.2 -1.4,1.4 -3.8,1.8 -4.8,0.7 -0.3,-0.3 -0.4,-0.6 -1,-2.6 -0.4,-1.5 -0.5,-1.5 -0.4,0.6 0.1,3.1 -0.6,3.8 -3.4,3.8 -3.9,0 -5.3,-1.4 -5.3,-5.6 0,-1.9 -0.3,-1.7 -0.4,0.3 -0.1,1.9 -0.7,2.4 -2.7,2.7 -3.9,0.5 -7,-2.1 -7,-5.8 0,-2.4 1.4,-4.5 4.8,-7.3 3.4,-2.7 3.3,-2.6 2.1,-4.2 -0.8,-1.1 -1.6,-2.4 -2.4,-4.3 -0.1,-0.3 -0.3,-0.7 -0.4,-0.8 -0.1,-0.2 0,-0.2 0.4,0.1 1.4,0.9 2.8,1.2 2.8,0.7 0,-0.3 0,-0.3 -2.8,-1.6 -5.9,-2.8 -7.8,-4.2 -9.7,-7.2 -0.9,-1.5 -1,-1.4 0.4,-1.4 3.5,0 6.8,-0.9 8.4,-2.2 0.6,-0.5 0.2,-0.5 -1.4,0.1 -3,1.1 -7.1,1.2 -10,0.2 -1.1,-0.4 -1.3,-0.5 -6.5,-3 -1.1,-0.5 -2.3,-1.1 -2.7,-1.3 -7.4,-3.3 -11.3,-6.1 -12.1,-8.8 -0.3,-1 -0.3,-6.1 0,-7.5 1,-4.5 1.9,-6.3 5.5,-11 1.1,-1.4 2,-2.6 2,-2.7 0.1,-0.1 0.3,0 0.6,0.4 2,1.8 3.8,2.8 5.1,2.6 1.2,-0.1 1.3,-0.7 0,-1.4 -4.2,-2.3 -4.6,-2.8 -3.9,-5.7 0.7,-3 0.7,-4 0.3,-3.9 -0.3,0.1 -0.5,0.5 -0.9,2.6 -0.7,3.6 -0.9,4 -3,5.2 -1.4,0.8 -1.9,0.7 -1.9,-0.5 0,-1.6 -0.3,-3.7 -0.6,-4.1 -0.5,-0.7 -0.5,-0.7 -0.7,0.6 -0.1,0.5 0.1,2.5 0.4,4.1 0.4,2.6 0.1,3.9 -1.4,5.9 -1.8,2.3 -2.9,5.9 -3.1,9.9 0,0.6 -0.1,1.3 -0.1,1.6 l -0.1,0.5 -0.6,-0.1 c -2.8,-0.4 -4.1,-1.3 -6.3,-4.7 -1.6,-2.3 -1.5,-2.5 0.3,-6.8 l 1,-2.3 -0.6,-0.7 c -4.6,-5.1 -4.1,-11.9 1.2,-15.3 6.3,-4.1 5.9,-3.9 9.6,-4.6 2.9,-0.5 3.9,-0.9 4.5,-1.6 0.4,-0.6 0.3,-0.9 -0.9,-2.2 -1.4,-1.4 -1.6,-1.7 -2,-3.6 -0.4,-1.6 -0.4,-1.6 -1.2,-2 -1.9,-1 -3.5,-5.1 -3.4,-8.8 0.1,-3.7 0.1,-4.3 -0.2,-5.1 -0.5,-1.8 -0.3,-2.6 0.6,-2.4 0.4,0.1 0.5,0.2 1.6,1.5 0.4,0.5 0.5,0.3 0.3,-1.2 -0.2,-2.2 0.1,-5.9 0.9,-10.2 0.2,-1.3 0.2,-1.2 -0.7,-2.2 -3.4,-3.6 -5.9,-8 -5.3,-9.5 0.2,-0.6 0.5,-0.4 1.9,0.8 2.2,2.1 4.4,3.9 5.3,4.2 0.4,0.2 0.4,0.1 0.7,-0.2 4.6,-5.1 8.4,-7.5 13.7,-8.8 3.1,-0.7 3,-0.7 3,-1.5 0,-0.8 -0.4,-1.6 -1.5,-3.3 -1.6,-2.4 -0.7,-2.8 2.9,-1 2.5,1.2 2.8,0.6 1,-1.8 -1.5,-2 -1.9,-2.9 -1.3,-3.1 0.4,0 2.3,0.2 3.4,0.4 m 33.1,13.9 c -6.6,5.9 -8.7,7.9 -9.1,8.7 -0.7,1.3 -0.2,3.3 0.8,3.7 1.8,0.6 6.8,-6.3 8.5,-11.7 0.4,-1.2 0.4,-1.2 -0.2,-0.7 m -60.4,3.2 c 0,0.1 0.2,0.6 0.5,1.1 2,3.9 8.3,8.6 9.2,6.7 0.5,-1.1 -0.6,-2.3 -3.9,-3.9 -1.7,-0.9 -2.5,-1.4 -3.4,-2.1 -0.2,-0.1 -0.5,-0.5 -0.8,-0.7 -0.3,-0.2 -0.7,-0.6 -1,-0.8 -0.5,-0.5 -0.6,-0.6 -0.6,-0.3 m 18.4,14.6 c -1.9,1.3 -3.2,5 -3,8.5 0.2,2.9 1.5,3.7 2.3,1.4 0.3,-0.9 1.2,-2.8 1.4,-3.1 0.2,-0.2 0.2,-0.2 0.3,0.2 0.7,4 3.8,7.9 8.6,11.1 2.3,1.5 2.5,1.5 2.1,-0.6 -0.6,-3.1 -0.7,-9.1 -0.1,-11 0.3,-0.9 0.4,-0.9 0.8,0 0.9,1.6 2,2.8 4.7,5.1 3.1,2.6 4,2.6 3.4,0 -0.4,-1.6 -0.5,-4 -0.3,-5.4 0.3,-1.6 0,-2.4 -0.6,-2.1 -0.7,0.3 -0.9,2 -0.8,5.3 0.1,2.8 0.2,2.6 -0.5,1.9 -0.3,-0.3 -1.1,-1 -1.6,-1.5 -1.7,-1.4 -1.8,-1.6 -2.9,-3.7 -0.3,-0.6 -0.7,-1.3 -0.9,-1.6 -0.8,-1.5 -1.7,-1.2 -2.5,0.8 -0.5,1.4 -0.6,6.4 -0.1,10.8 0.1,1.2 0.3,1.2 -1.6,-0.1 -4.3,-3.2 -6.5,-6.9 -6.5,-10.8 0,-2 0,-1.9 -0.4,-1.9 -0.4,0 -0.4,0 -0.8,1.2 -0.2,0.4 -0.7,1.4 -1.3,2.2 -0.6,0.8 -1.1,1.7 -1.3,1.8 -0.3,0.4 -0.3,0.4 -0.2,-1 0.2,-2.6 0.8,-4.4 2.1,-5.9 1.5,-1.5 1.1,-2.6 -0.3,-1.6 m -16.6,7.8 c -0.2,0.2 -0.1,1.2 0.4,2.1 0.7,1.5 1,2.6 1.6,5.5 0.6,2.6 0.7,3.1 1.1,3.1 1,0 0.7,-3.4 -0.8,-7.3 -1.1,-2.8 -1.8,-3.9 -2.3,-3.4 m 71.7,1.6 c 0.1,0.1 0.2,0.5 0.3,1 0.1,0.4 0.2,1.3 0.3,1.9 1.2,7.6 1.1,9.4 -0.4,9.6 -1.2,0.2 -1.8,0.9 -2.2,2.6 -0.6,2.3 -2.1,6.8 -2.5,7.3 -0.2,0.2 -0.5,1.6 -0.4,1.9 0.3,1.3 4.5,-2.3 4.7,-4.1 0.1,-0.5 0.1,-0.5 -0.6,-1.1 -1,-0.9 -0.9,-1.2 0.8,-3 1.2,-1.3 2.2,-2.6 3.1,-3.8 1.5,-2.2 2,-1.8 2.4,1.9 0.2,2.1 0.5,3.4 0.8,4.7 0.5,1.8 0.3,2.3 -0.8,2 -1.2,-0.4 -1.9,0.2 -2.5,2.4 -0.9,3.5 -4.7,7.5 -8.9,9.5 -1.4,0.7 -1.9,1.5 -2.7,4.7 -1.4,5.7 -1.8,7.2 -2.7,9.9 -0.7,2.1 -0.5,1.9 -2.2,2.1 -2.5,0.3 -4.1,0.9 -5.1,1.7 -0.3,0.2 -0.5,0.4 -0.5,0.3 0,-0.3 1.3,-5 2.6,-9.1 0.4,-1.3 0.8,-2.6 0.9,-2.9 0.1,-0.3 0.2,-0.8 0.3,-1.1 0.1,-0.3 0.3,-0.9 0.4,-1.2 0.1,-0.3 0.3,-0.8 0.3,-1.1 1.1,-3.8 1.2,-4.6 0.7,-5.3 -1.7,-2 -2.6,-7.3 -2.3,-12.8 0.2,-2.7 0.2,-3.1 -0.3,-3.3 -0.7,-0.3 -0.5,-1 0.5,-2.4 0.4,-0.5 1.1,-1.5 1.5,-2.2 1.3,-1.9 2.2,-3 2.8,-3.6 1.1,-0.9 1.2,-0.8 2.1,2.7 0.2,0.6 0.4,1.6 0.6,2.2 0.5,1.7 0.4,2.2 -0.3,2.8 -1.8,1.3 -1.9,1.4 -2.1,2.5 -0.3,1.9 0.9,7.4 1.5,6.7 0.2,-0.3 1.1,-2.8 1.7,-5.2 0.6,-2.3 1,-3.8 1.3,-4.5 0.4,-0.9 0.1,-1.6 -0.9,-2.8 -1.3,-1.6 -1.1,-2.2 1.4,-5 4.8,-5 6.1,-6.3 6.4,-5.9 m -14.9,4.7 c -0.9,0.4 -3.4,3 -4.8,5.1 -0.5,0.7 -0.7,1.6 -0.5,1.8 0.3,0.3 0.8,-0.1 2.8,-2.5 0.8,-1 1.9,-2.2 2.3,-2.7 0.8,-0.8 1,-1.2 0.9,-1.6 0,-0.4 -0.1,-0.4 -0.7,-0.1 m -42.2,0.2 c -0.3,0.5 -0.6,2.3 -0.5,3.4 0.1,2.1 0.8,3.5 2.9,5.4 2.3,2.2 4.1,2.5 6.2,0.9 1,-0.8 1.1,-0.7 -3.2,-4.6 -1.2,-1.1 -2.8,-2.7 -3.7,-3.6 -0.9,-0.9 -1.7,-1.6 -1.7,-1.5 m 24.1,2.4 c -0.7,0.5 -1.8,1.3 -2.3,1.7 -0.5,0.4 -1.3,0.9 -1.8,1.2 -0.4,0.3 -1.2,0.9 -1.8,1.3 -3.7,2.6 -3.9,3 -2.5,4.4 1.3,1.4 3.4,1.4 6.1,0.2 3.1,-1.5 4.9,-5.7 3.9,-9.2 -0.1,-0.7 0,-0.7 -1.6,0.4 m -29.7,12.4 c -0.4,0.1 -0.1,0.6 0.8,1.5 5.5,5.4 13.9,7.6 22.7,5.8 6,-1.2 11.8,-3.3 11.8,-4.3 0,-0.6 -1.2,-0.4 -4.5,0.8 -2.6,0.9 -3.9,1.3 -4.8,1.6 -0.5,0.1 -1,0.3 -1.2,0.4 -4.5,1.6 -12,1.3 -16.6,-0.7 -0.1,-0.1 -0.5,-0.2 -0.9,-0.4 -1.5,-0.6 -3.8,-2 -4.8,-2.9 -1,-1.1 -2.2,-1.9 -2.5,-1.8 m 26.2,0.4 c -3.3,0.8 -4.3,1.4 -3.8,2.3 0.3,0.4 0.6,0.4 1.7,-0.2 1.2,-0.6 2.2,-0.9 3.4,-1.1 1.6,-0.2 2.5,-0.6 2.1,-0.9 -0.2,-0.2 -2.6,-0.2 -3.4,-0.1 M 195,174 c 0,0.2 -0.1,0.6 -0.4,0.9 -1,1.6 -1.5,3.4 -1.8,6.4 -0.1,0.9 -0.3,0.9 -1.5,-0.2 -1.2,-1.1 -1.1,-1 -2.6,-0.3 -4.7,2.4 -8.5,6.1 -11.1,10.5 -0.8,1.3 -0.8,1.3 -0.9,1 -0.1,-0.2 -0.3,-0.8 -0.6,-1.4 l -0.5,-1 0.4,-0.8 c 1.5,-2.8 4.1,-5.5 8,-8 1.5,-1 2.2,-1.4 3.7,-2.2 0.8,-0.4 0.8,-0.4 -0.3,-1.4 -1.4,-1.2 -1.4,-1.1 1,-1.9 1.1,-0.4 2.8,-0.9 3.7,-1.3 2,-0.7 2.8,-0.8 2.9,-0.3 m -71.4,11.5 c -1.8,0.9 -1.2,3.6 0.8,3.2 0.6,-0.1 1.4,-0.8 1.6,-1.3 0.6,-1.7 -0.7,-2.7 -2.4,-1.9 m 50,4 c 1.6,0.5 1.9,1.1 1.9,3.8 0,2.4 -0.2,3 -1,3.8 -1.8,1.8 -6.6,1.4 -8.9,-0.8 -3.3,-2.9 3,-8.2 8,-6.8 m 2,8.8 c 0.7,0.7 -0.7,3.3 -2.3,4.1 -1.6,0.8 -5,1.1 -6.6,0.6 -3,-1 -4,-2 -3.4,-3.2 0.6,-1.1 1.6,-1.4 3.5,-0.9 3,0.8 5.4,0.6 7.4,-0.5 0.5,-0.4 1.1,-0.4 1.4,-0.1 m -13.4,2 c 0.7,1.8 -1.7,3 -5.7,2.8 -2.1,-0.1 -1.9,0 -2.3,-1.4 -0.4,-1.4 -0.5,-1.3 1,-0.8 1.8,0.6 3.1,0.6 5.3,-0.3 0.7,-0.3 1.3,-0.4 1.6,-0.5 0,0 0.1,0.1 0.1,0.2 m 2.9,3.3 c 2,0.5 5.9,0.7 7.3,0.4 2.4,-0.7 1,2.7 -1.6,3.6 -4.1,1.5 -11.9,-1.3 -10.4,-3.8 0.6,-0.9 1.9,-1 4.7,-0.2 m -39.5,4.9 c 6.9,3.4 8.3,4.2 8.2,4.3 -1.2,2.1 -2.1,3.7 -3,5 -1.1,1.7 -1.2,1.8 -1,1.9 0.2,0.1 0.9,-0.7 1.7,-1.9 l 0.7,-1 0.4,0.2 c 5.2,3.1 5.9,4.2 4.4,7.2 -1.5,3.1 -3.6,4 -10.7,4.5 -1.3,0.1 -2.9,0.2 -3.7,0.3 -0.8,0.1 -2.2,0.2 -3.1,0.4 -0.9,0.1 -1.8,0.2 -2,0.2 -0.2,0 -1,0.1 -1.8,0.2 -1.9,0.2 -4.6,0.4 -6.5,0.7 -6.2,0.7 -9,0 -9,-2.5 0,-1.6 2.4,-3.7 4.9,-4.3 1,-0.2 1.1,-0.3 0.9,-0.5 -0.9,-0.6 -3.9,0.9 -5.4,2.7 -0.9,1 -1.2,1 -2.2,0 -1,-1 -1.1,-1.4 -1.2,-2.6 -0.1,-1.9 0.2,-2.6 1.6,-3.6 0.3,-0.2 0.4,-0.4 0.3,-0.4 -0.2,-0.1 -1.1,0.4 -2,1.1 -0.9,0.7 -0.9,0.7 -1.2,0.5 -0.5,-0.2 -0.6,-0.8 -0.6,-2.1 0,-2.2 0.6,-2.9 3.6,-3.9 2.7,-0.9 11.1,-0.8 14.1,0.3 1.7,0.6 2,0.4 2.3,-1.3 0.2,-1 0.6,-2.2 1.4,-4.7 0.4,-1.2 0.4,-1.3 0.5,-3 0,-1 0.1,-1.8 0.1,-1.8 -0.1,-0.1 3.7,1.8 8.3,4.1 m 37.3,-0.3 c 1.4,0.4 2.4,0.7 3.2,0.8 0.6,0.1 0.4,0.6 -0.9,3.8 -0.5,1.2 -0.5,1.3 -1.9,4.3 -1.9,4.2 -2.9,6.4 -3.8,8.9 -0.8,2 -1.2,2.3 -2.6,1.8 -1.4,-0.5 -1.8,-1.5 -1.2,-3.3 0.2,-0.5 0.6,-1.9 0.9,-3.1 0.3,-1.2 0.7,-2.3 0.7,-2.5 0.1,-0.2 0.2,-0.7 0.4,-1.2 0.7,-2.4 1.9,-5.8 2.4,-7.2 0.4,-1 1.3,-2.8 1.3,-2.8 0.1,0.1 0.7,0.3 1.5,0.5 m 22.7,1.8 c -0.4,0.1 -0.3,0.2 0.6,0.6 0.7,0.4 2.8,1.7 2.7,1.8 0,0 -0.6,0.2 -1.3,0.3 -5.8,1.1 -10.1,4.1 -13.8,9.6 -0.7,1.1 -0.8,1.2 -0.9,2 -0.1,0.8 0,1.2 0.1,0.8 0,-0.1 0.4,-0.7 0.9,-1.5 3.9,-6.1 8.2,-9.1 14.6,-10.2 l 1.4,-0.2 0.4,0.4 c 0.7,0.6 1.4,1.7 2,2.7 0.7,1.2 0.7,1.3 0,1.3 -0.3,0 -1.1,0.1 -1.7,0.2 -7.8,1.2 -12.4,5.4 -15.4,14.1 l -0.5,1.5 0.3,0.5 c 0.3,0.6 0.3,0.6 0.7,-0.5 2.8,-9.5 8.1,-14.3 16.4,-14.9 l 1.1,-0.1 0.1,0.5 c 0.4,1.4 0.5,3.7 0.4,5.7 l -0.1,1.3 -1.2,0.5 c -5,1.9 -9.7,6.2 -12.9,11.9 l -0.3,0.5 0.3,0.2 c 0.4,0.3 0.3,0.4 1.2,-1 1.1,-1.9 1,-1.8 2,-1 2.3,1.9 5.3,3.3 8.8,4.2 l 1.6,0.4 0.8,-0.3 c 0.8,-0.3 1,-0.4 0.4,-0.4 -1.3,0 -5.3,-1.2 -7.4,-2.3 -1.7,-0.9 -4.4,-2.7 -4.4,-3.1 0,-0.2 1.8,-2.4 2.8,-3.4 l 1,-1.1 1.1,1 c 3.3,2.9 6.7,4.3 11.2,4.6 2.2,0.1 2.7,0.1 3,-0.6 0.1,-0.2 -0.1,-0.2 -1.6,-0.2 -5,0 -9.5,-1.7 -12.3,-4.7 l -0.6,-0.6 0.4,-0.3 c 1.4,-1.2 4.2,-2.7 5.9,-3.2 l 0.8,-0.3 1.2,0.8 c 2.8,1.9 5.3,2.8 8,2.8 0.7,0 1.2,0 1.3,-0.1 0,0 0.1,-0.2 0.1,-0.4 l 0.1,-0.3 h -1.3 c -1.5,0 -1.4,0.1 -1.2,-1.2 0.7,-4.8 -0.6,-9.8 -3.7,-13.8 -1.9,-2.5 -2.9,-3.3 -4.4,-3.9 -1.3,-0.5 -1.3,-0.5 -0.2,0.4 3.6,2.7 6.4,7 7.3,11.2 0.4,1.7 0.4,6.3 0,6.9 -0.3,0.4 -3.3,-0.9 -5.4,-2.3 l -1.3,-0.8 v -2.6 c 0,-6.3 -1.7,-9.6 -6.8,-12.7 -1.2,-0.8 -1.5,-0.9 -2.3,-0.7 m 2,11.7 c 0,0.1 0.1,0.3 0.2,0.4 l 0.3,0.3 -0.6,0.3 -0.6,0.3 -0.4,-0.3 c -0.7,-0.6 -1,-0.3 -0.3,0.3 l 0.3,0.3 -0.6,0.4 -0.6,0.4 -0.4,-0.4 c -0.7,-0.7 -1.1,-0.4 -0.4,0.3 l 0.4,0.5 -0.6,0.6 -0.6,0.6 -0.4,-0.4 c -0.7,-0.7 -0.9,-0.4 -0.3,0.3 l 0.4,0.4 -0.5,0.6 c -0.6,0.7 -0.6,0.7 -0.9,0.3 -0.3,-0.3 -0.5,-0.4 -0.5,-0.1 0,0.1 0.1,0.3 0.2,0.5 l 0.3,0.3 -0.4,0.6 -0.4,0.6 -0.4,-0.3 c -0.6,-0.5 -0.8,-0.1 -0.3,0.4 l 0.3,0.3 -0.4,0.7 c -0.4,0.7 -0.4,0.7 -0.6,0.4 -0.2,-0.3 -0.6,-0.3 -0.6,-0.1 0,0.1 0.1,0.3 0.3,0.5 0.3,0.3 0.3,0.3 0.1,0.7 -0.1,0.2 -0.2,0.5 -0.1,0.5 0.1,0.3 0.5,0.2 0.7,-0.1 l 0.1,-0.3 0.4,0.3 c 0.5,0.4 0.7,0.1 0.2,-0.4 l -0.3,-0.3 0.4,-0.7 c 0.4,-0.8 0.5,-0.8 0.8,-0.4 0.3,0.3 0.7,0.4 0.7,0.2 0,-0.1 -0.2,-0.3 -0.4,-0.5 l -0.4,-0.4 0.4,-0.5 c 0.2,-0.3 0.4,-0.6 0.5,-0.6 0.1,-0.1 0.2,0 0.4,0.2 0.6,0.5 0.9,0.3 0.3,-0.3 l -0.4,-0.4 0.5,-0.6 0.5,-0.6 0.3,0.3 c 0.2,0.2 0.4,0.3 0.5,0.2 0.3,-0.1 0.2,-0.2 -0.1,-0.5 -0.4,-0.4 -0.4,-0.4 0.3,-0.9 l 0.6,-0.5 0.5,0.4 c 0.7,0.7 1.1,0.4 0.4,-0.3 -0.5,-0.5 -0.5,-0.5 0.2,-0.9 l 0.6,-0.4 0.4,0.3 c 0.7,0.5 0.9,0.3 0.4,-0.3 l -0.3,-0.3 0.5,-0.3 0.6,-0.3 0.4,0.4 c 0.7,0.7 1.2,0.5 0.5,-0.2 l -0.4,-0.4 0.3,-0.2 c 0.4,-0.3 0.1,-0.7 -0.5,-0.5 -0.3,0.1 -0.4,0.1 -0.7,-0.2 -0.6,-0.4 -0.7,-0.4 -0.8,-0.2 m -45.5,1.2 c 0.4,0.1 0.4,0.2 0.6,0.8 0.4,1.4 1.1,2.6 2,3.6 l 0.5,0.5 -0.9,0.7 c -0.5,0.4 -1.3,1.1 -1.8,1.6 l -0.9,0.9 v -4.2 c 0,-2.3 0,-4.2 0.1,-4.2 -0.1,0.1 0.1,0.2 0.4,0.3"
   inkscape:connector-curvature="0"
   style="clip-rule:evenodd;fill:#fbfbfb;fill-rule:evenodd" />
	<path
   id="path4"
   class="st4"
   d="m 135.8,97.4 c 0.2,0 0.4,0 0.6,0 0.1,0 0,0 -0.3,0 -0.3,-0.1 -0.5,-0.1 -0.3,0 m -1.6,9.2 c 0,0.3 0,0.4 0.1,0.3 0,-0.1 0,-0.4 0,-0.5 -0.1,-0.2 -0.1,-0.1 -0.1,0.2 m 36.5,4.3 -0.4,0.4 0.4,-0.4 c 0.4,-0.3 0.5,-0.4 0.4,-0.4 0,0 -0.2,0.2 -0.4,0.4 m -59.5,2.1 c 0.5,0.5 0.6,0.6 0.6,0.5 0,0 -0.2,-0.3 -0.6,-0.5 l -0.5,-0.6 0.5,0.6 m 55.2,2 -0.5,0.5 0.5,-0.5 c 0.3,-0.2 0.5,-0.4 0.5,-0.5 0,-0.1 -0.1,0 -0.5,0.5 m -49.2,2.1 c -0.2,0.2 -0.3,0.3 -0.2,0.3 0.1,0 0.2,-0.1 0.4,-0.3 0.3,-0.3 0.3,-0.3 -0.2,0 m 52.7,2.5 c 0,0.2 0,0.3 0.1,0.2 0,-0.1 0,-0.3 0,-0.4 0,-0.1 -0.1,-0.1 -0.1,0.2 m -54.9,2.2 c 0.3,0.3 0.5,0.5 0.5,0.5 0,0 -0.1,-0.2 -0.4,-0.5 -0.3,-0.3 -0.5,-0.5 -0.5,-0.5 -0.1,0 0.1,0.2 0.4,0.5 m 50.6,0.9 -0.6,0.7 0.6,-0.7 c 0.7,-0.6 0.8,-0.7 0.7,-0.7 0,0 -0.3,0.3 -0.7,0.7 m 5.1,7.2 c 0,0.4 0,0.5 0,0.3 0,-0.2 0,-0.5 0,-0.6 0,-0.2 0,0 0,0.3 m -56.2,2.5 c 0,0.6 0,0.8 0,0.5 0,-0.3 0,-0.7 0,-1 0,-0.3 0,0 0,0.5 M 132,135 c 0,0.4 0,0.5 0,0.3 0,-0.2 0,-0.5 0,-0.6 0.1,-0.2 0,0 0,0.3 m -5.4,2.3 c 0,0.4 0,0.5 0,0.3 0,-0.2 0,-0.5 0,-0.6 0,-0.3 0,-0.1 0,0.3 m -14.2,1 c 0,0.4 0,0.5 0,0.3 0,-0.2 0,-0.5 0,-0.7 0,-0.2 0,0 0,0.4 m 32.6,-0.7 c 0,0 0.2,0.2 0.4,0.4 l 0.4,0.3 -0.3,-0.4 c -0.4,-0.3 -0.5,-0.3 -0.5,-0.3 m 5.1,1.2 c 0,0.2 0,0.3 0.1,0.2 0,-0.1 0,-0.3 0,-0.4 -0.1,-0.1 -0.1,0 -0.1,0.2 m 31.4,2.7 -0.3,0.4 0.3,-0.4 c 0.4,-0.3 0.5,-0.4 0.4,-0.4 -0.1,0 -0.2,0.2 -0.4,0.4 m -41.6,2.1 c 0,0.3 0,0.4 0.1,0.3 0,-0.2 0,-0.4 0,-0.6 0,-0.2 -0.1,-0.1 -0.1,0.3 m 1.3,0.7 c 0,0.2 0,0.3 0.1,0.2 0,-0.1 0,-0.3 0,-0.4 0,-0.1 -0.1,0 -0.1,0.2 m 26.9,0.4 -0.3,0.4 0.3,-0.4 c 0.4,-0.3 0.5,-0.4 0.4,-0.4 0,0 -0.2,0.2 -0.4,0.4 m -38,1.2 c 0.6,0.6 1.1,1.1 1.1,1.1 0,0 -0.4,-0.5 -1,-1.1 -0.6,-0.6 -1.1,-1.1 -1.1,-1.1 0,0 0.4,0.5 1,1.1 m 56,2.1 c 0,0.4 0,0.6 0,0.4 0,-0.2 0,-0.6 0,-0.8 0,-0.2 0,0 0,0.4 m -50.1,3.4 c 0.5,0.5 0.6,0.6 0.6,0.5 0,0 -0.2,-0.2 -0.6,-0.5 l -0.5,-0.6 0.5,0.6 m 7,0.9 -0.3,0.4 0.3,-0.4 c 0.4,-0.3 0.5,-0.4 0.4,-0.4 0,0 -0.2,0.1 -0.4,0.4 m 25.8,2.2 c 0,0.3 0,0.4 0.1,0.3 0,-0.1 0,-0.4 0,-0.5 0,-0.2 -0.1,-0.1 -0.1,0.2 m -23.1,1.2 c 0.2,0 0.5,0 0.6,0 0.2,0 0,0 -0.3,0 -0.3,0 -0.5,0 -0.3,0 m -22.9,4.2 c 0.5,0.5 0.6,0.6 0.6,0.5 0,0 -0.3,-0.2 -0.6,-0.5 l -0.5,-0.6 0.5,0.6 m 45.9,0.9 c 0,0.2 0,0.3 0.1,0.2 0,-0.1 0,-0.3 0,-0.4 -0.1,-0.1 -0.1,0 -0.1,0.2 m -8.7,0.9 c 0,0 0.2,0.2 0.4,0.4 l 0.4,0.3 -0.3,-0.4 c -0.4,-0.3 -0.5,-0.4 -0.5,-0.3 m -20.7,4.8 c 0.3,0 0.7,0 1,0 0.3,0 0.1,0 -0.5,0 -0.6,-0.1 -0.8,-0.1 -0.5,0 m -14.1,12.6 c 0.1,0 0.3,0 0.4,0 0.1,0 0,-0.1 -0.2,-0.1 -0.2,0 -0.3,0 -0.2,0.1 m 16,1.7 c 0.2,0 0.6,0 0.8,0 0.2,0 0,0 -0.4,0 -0.5,0 -0.6,0 -0.4,0 m 14.6,3.5 c 0.8,0.8 1.6,1.5 1.6,1.5 0,0 -0.6,-0.7 -1.5,-1.5 -0.8,-0.8 -1.6,-1.5 -1.6,-1.5 0,0 0.6,0.7 1.5,1.5 m 15.8,5.2 c 0.2,0 0.6,0 0.8,0 0.2,0 0,0 -0.4,0 -0.4,-0.1 -0.6,-0.1 -0.4,0 m -59.5,3 c 0,0.6 0,0.9 0,0.6 0,-0.3 0,-0.9 0,-1.2 0,-0.3 0,-0.1 0,0.6 m 51.2,2 c 0,0.3 0,0.4 0.1,0.3 0,-0.2 0,-0.4 0,-0.6 -0.1,-0.2 -0.1,0 -0.1,0.3 m -51.2,0.8 c 0,0.4 0,0.5 0,0.3 0,-0.2 0,-0.5 0,-0.6 0,-0.2 0,-0.1 0,0.3 m 47.2,0.9 c 0,0.4 0,0.5 0,0.3 0,-0.2 0,-0.5 0,-0.6 0,-0.2 0,0 0,0.3 m 15.5,2 c 0.1,0 0.3,0 0.4,0 0.1,0 0,-0.1 -0.2,-0.1 -0.2,0 -0.3,0 -0.2,0.1 m -4.1,0.1 c 0.2,0 0.6,0 0.8,0 0.2,0 0,0 -0.4,0 -0.5,0 -0.7,0 -0.4,0 m -13.5,4.8 c 0.1,0 0.4,0 0.5,0 0.1,0 0,-0.1 -0.3,-0.1 -0.3,0 -0.3,0.1 -0.2,0.1 m 4.6,0 c 0.2,0 0.6,0 0.8,0 0.2,0 0,0 -0.4,0 -0.4,0 -0.6,0 -0.4,0 m 6.8,1.1 c 0.6,0 1.5,0 2,0 0.5,0 0.1,0 -1,0 -1.1,0 -1.6,0 -1,0 m -1,3.9 c 0.2,0 0.4,0 0.6,0 0.1,0 0,-0.1 -0.3,0 -0.3,-0.1 -0.4,0 -0.3,0 m -64.7,6.2 c 0.3,0 0.9,0 1.2,0 0.3,0 0.1,0 -0.6,0 -0.7,0 -1,0 -0.6,0 m 4.8,0.2 c 0.2,0 0.4,0 0.6,0 0.1,0 0,0 -0.3,0 -0.3,-0.1 -0.4,-0.1 -0.3,0 m 49.9,13.5 c 0.1,0 0.3,0 0.4,0 0.1,0 0,-0.1 -0.2,-0.1 -0.2,0.1 -0.3,0.1 -0.2,0.1 m -32.4,0.7 c 0.1,0 0.3,0 0.4,0 0.1,0 0,-0.1 -0.2,-0.1 -0.2,0.1 -0.3,0.1 -0.2,0.1 m 23.5,0.4 -0.4,0.4 0.4,-0.4 c 0.4,-0.3 0.5,-0.4 0.4,-0.4 0.1,-0.1 -0.1,0.1 -0.4,0.4 m -4.4,3.7 -0.5,0.5 0.5,-0.5 c 0.5,-0.4 0.6,-0.5 0.5,-0.5 0,0 -0.2,0.2 -0.5,0.5 m -2.7,5.4 c 0,0.5 0,0.7 0,0.4 0,-0.2 0,-0.6 0,-0.9 0,-0.2 0,0 0,0.5 M 168,241 c 0,0.3 0,0.4 0.1,0.3 0,-0.1 0,-0.4 0,-0.5 -0.1,-0.2 -0.1,-0.1 -0.1,0.2 m -7.7,1.6 c 0,0.2 0,0.3 0.1,0.2 0,-0.1 0,-0.3 0,-0.4 0,-0.2 -0.1,-0.1 -0.1,0.2 m -3.6,4 c 0.2,0 0.5,0 0.6,0 0.2,0 0,0 -0.3,0 -0.4,0 -0.5,0 -0.3,0"
   inkscape:connector-curvature="0"
   style="clip-rule:evenodd;fill:#544c44;fill-rule:evenodd" />
</g>
</svg>