<?xml version="1.0" encoding="UTF-8" standalone="no"?>
<svg
   xmlns:dc="http://purl.org/dc/elements/1.1/"
   xmlns:cc="http://creativecommons.org/ns#"
   xmlns:rdf="http://www.w3.org/1999/02/22-rdf-syntax-ns#"
   xmlns:svg="http://www.w3.org/2000/svg"
   xmlns="http://www.w3.org/2000/svg"
   xmlns:sodipodi="http://sodipodi.sourceforge.net/DTD/sodipodi-0.dtd"
   xmlns:inkscape="http://www.inkscape.org/namespaces/inkscape"
   width="729.383"
   height="874.717"
   viewBox="0 0 547.037 656.038"
   version="1.1"
   id="svg28"
   sodipodi:docname="Mantova_1911_Stemma.svg"
   inkscape:version="1.0.2-2 (e86c870879, 2021-01-15)">
  <metadata
     id="metadata34">
    <rdf:RDF>
      <cc:Work
         rdf:about="">
        <dc:format>image/svg+xml</dc:format>
        <dc:type
           rdf:resource="http://purl.org/dc/dcmitype/StillImage" />
      </cc:Work>
    </rdf:RDF>
  </metadata>
  <defs
     id="defs32" />
  <sodipodi:namedview
     pagecolor="#ffffff"
     bordercolor="#666666"
     borderopacity="1"
     objecttolerance="10"
     gridtolerance="10"
     guidetolerance="10"
     inkscape:pageopacity="0"
     inkscape:pageshadow="2"
     inkscape:window-width="1920"
     inkscape:window-height="986"
     id="namedview30"
     showgrid="false"
     inkscape:zoom="0.31721432"
     inkscape:cx="310.96952"
     inkscape:cy="613.74636"
     inkscape:window-x="-11"
     inkscape:window-y="-11"
     inkscape:window-maximized="1"
     inkscape:current-layer="svg28" />
  <path
     d="M290.12 280.076c-3.676 0-6.011-2.756-6.011-6.765s2.335-6.765 6.012-6.765c3.736 0 6.07 2.756 6.07 6.765s-2.334 6.765-6.07 6.765zm-7.003 22.862c-.175.438-.059.626.35.626h5.662a.815.815 0 0 0 .7-.376l10.331-19.98c1.752-3.32 2.627-6.577 2.627-9.772 0-4.071-1.167-7.328-3.56-9.646-2.394-2.317-5.429-3.507-9.106-3.507-3.677 0-6.712 1.19-9.106 3.57-2.393 2.38-3.56 5.7-3.56 9.896 0 3.821 1.109 6.828 3.268 9.145 2.219 2.318 4.904 3.445 8.055 3.445 1.343 0 2.335-.188 2.977-.563l.117.125zM264.154 302.938c0 .435.175.626.584.626h5.37c.408 0 .583-.188.583-.626V260.18c0-.439-.329-.937-.583-.627l-5.954 7.26zM439.839 251.556l-35.262-88.9h11.889l23.56 61.51 23.637-61.51h11.284zM400.707 205.924c0 6.01-1.087 11.669-3.226 16.973-2.146 5.323-5.279 10.046-9.395 14.175a43.677 43.677 0 0 1-14.215 9.553 42.78 42.78 0 0 1-16.664 3.348 42.363 42.363 0 0 1-16.607-3.348c-5.318-2.238-10.042-5.424-14.158-9.553-4.154-4.168-7.314-8.909-9.49-14.233-2.166-5.302-3.245-10.944-3.245-16.915 0-6.01 1.072-11.674 3.246-17.013 2.168-5.327 5.334-10.085 9.49-14.253a42.974 42.974 0 0 1 14.139-9.455c5.332-2.208 10.875-3.329 16.625-3.329 5.789 0 11.354 1.115 16.72 3.329a42.927 42.927 0 0 1 14.16 9.455c4.116 4.129 7.255 8.87 9.394 14.194 2.146 5.342 3.226 11.022 3.226 17.072zm-43.5 34.652c4.441 0 8.693-.866 12.697-2.604 4.02-1.744 7.651-4.29 10.875-7.615 3.186-3.288 5.618-7.01 7.288-11.18s2.505-8.594 2.505-13.253c0-4.699-.835-9.182-2.524-13.43a34.088 34.088 0 0 0-7.269-11.238c-3.186-3.287-6.798-5.794-10.818-7.518-4.004-1.717-8.274-2.584-12.754-2.584-4.517 0-8.808.863-12.848 2.584-4.041 1.721-7.602 4.24-10.724 7.518-3.175 3.335-5.62 7.09-7.288 11.296-1.668 4.207-2.505 8.673-2.505 13.372 0 4.66.818 9.066 2.467 13.195 1.65 4.13 4.09 7.88 7.326 11.238 3.251 3.373 6.89 5.917 10.856 7.635 3.981 1.724 8.237 2.584 12.716 2.584zM279.577 249.106v-76.708h-18.364v-9.692h46.768v9.692h-18.12v76.708zM203.444 249.44v-89.183l35.001 57.284v-54.784h9.545v88.616l-35.001-54.866v52.933zM158.13 160.261l33.875 88.806-10.474.094-4.636-12.235-37.598-.374-4.636 12.609-10.27-.094zm-.046 27.275-15.655 41.406h31.514zM85.99 214.566l-17.493-23.328-.121 58.019H58.075l.19-88.621 28.1 36.726 26.977-36.913-.28 88.808h-9.832l-.038-58.58zM503.39 160.261l33.875 88.806-10.474.094-4.636-12.235-37.599-.374-4.635 12.609-10.27-.094zm-.046 27.275-15.655 41.406h31.514zM308.375 302.938c0 .435.174.626.583.626h5.37c.409 0 .584-.188.584-.626V260.18c0-.439-.33-.937-.584-.627l-5.953 7.26zM324.815 302.938c0 .435.175.626.584.626h5.37c.409 0 .584-.188.584-.626V260.18c0-.439-.33-.937-.584-.627l-5.954 7.26z"
     style="fill:#ff000a;fill-rule:evenodd"
     id="path2"
     transform="translate(-24.12 -92.926)" />
  <path
     d="M298.798 360.914c-37.347 0-70.919 14.818-95.138 38.971-24.182 24.115-39.049 57.549-39.049 94.84 0 37.167 14.863 70.18 38.998 93.951 24.33 23.963 58.092 38.549 95.564 38.549 37.47 0 71.514-14.867 96.127-39.113 24.418-24.052 39.56-57.344 39.56-94.512 0-37.07-15.157-70.057-39.557-93.861-24.723-24.119-58.938-38.825-96.505-38.825Zm-98.127 35.965c24.993-24.925 59.62-40.217 98.127-40.217 38.702 0 73.967 15.166 99.461 40.037 25.2 24.584 40.852 58.64 40.852 96.901 0 38.348-15.63 72.705-40.838 97.535-25.387 25.007-60.484 40.342-99.1 40.342-38.618 0-73.431-15.052-98.537-39.778-24.927-24.55-40.277-58.627-40.277-96.974 0-38.457 15.348-72.952 40.311-97.846z"
     style="fill:#000;fill-rule:evenodd"
     transform="translate(-24.12 -92.926)"
     id="path4" />
  <path
     d="M298.667 341.974c-42.985 0-81.308 16.903-108.879 44.457-27.565 27.549-44.392 65.76-44.392 108.386 0 42.452 16.978 80.162 44.547 107.315 27.791 27.372 66.353 44.032 109.151 44.032 42.686 0 81.262-16.895 109.248-44.463 27.917-27.5 45.307-65.62 45.74-108.183v-1.565c0-41.942-17.25-79.21-45.072-106.098-27.853-26.917-66.295-43.449-108.639-43.88zm0-4.252 1.738.017c43.473.443 82.943 17.419 111.545 45.06 28.633 27.67 46.384 66.013 46.384 109.154l-.016 1.598c-.445 43.741-18.315 82.914-47.003 111.173-28.76 28.33-68.386 45.692-112.221 45.692-43.943 0-83.557-17.125-112.124-45.26-28.36-27.934-45.826-66.707-45.826-110.339 0-43.787 17.306-83.06 45.655-111.392 28.343-28.327 67.72-45.703 111.867-45.703z"
     style="fill:#000;fill-rule:evenodd"
     transform="translate(-24.12 -92.926)"
     id="path6" />
  <path
     d="M299.892 598.05h.239v-.008c28.278 0 53.88-11.462 72.411-29.994 18.532-18.531 29.994-44.133 29.994-72.411 0-28.279-11.462-53.88-29.994-72.412-18.531-18.531-44.133-29.994-72.411-29.994v-.008h-.26v-4.235h.26v-.008c29.452 0 56.116 11.938 75.418 31.24 19.3 19.3 31.239 45.965 31.239 75.417 0 29.452-11.938 56.117-31.24 75.418-19.3 19.301-45.965 31.24-75.417 31.24v-.009h-.239z"
     style="fill:#000;fill-rule:evenodd"
     transform="translate(-24.12 -92.926)"
     id="path8" />
  <path
     d="m301.895 358.956.04 270.563h-4.236l-.04-270.563zM561.655 322.12H37.405v-4.253h524.25ZM29.437 144.616h537.749v4.252H29.437Z"
     style="fill:#000;fill-rule:evenodd"
     transform="translate(-24.12 -92.926)"
     id="path10" />
  <path
     d="m26.346 92.927 542.628.187 2.182.001-.064 2.175c-.487 16.37-.946 32.73-1.404 49.085-1.718 61.32-3.434 122.587-6.66 183.982-2.981 56.775-14.523 110.987-34.551 161.466-19.773 49.836-47.813 96.022-84.05 137.43-19.62 22.423-41.397 43.676-65.199 63.74-24.071 20.293-50.207 39.373-78.272 57.222l-1.178.749-1.156-.79c-24.602-16.821-49.507-35.269-73.293-55.35-23.797-20.09-46.475-41.822-66.614-65.203-47.363-54.989-77.213-104.644-95.707-153.712-18.499-49.085-25.62-97.54-27.527-150.132-1.83-50.512-4.556-101.423-7.28-152.333-1.358-25.394-2.717-50.79-3.972-76.3l-.11-2.218Zm540.445 4.422-538.218-.186c1.216 24.577 2.54 49.321 3.864 74.065 2.72 50.84 5.441 101.681 7.28 152.399 1.89 52.156 8.944 100.184 27.261 148.786 18.323 48.618 47.934 97.856 94.942 152.434 19.976 23.192 42.5 44.771 66.15 64.738 23.288 19.662 47.67 37.758 71.788 54.292 27.48-17.544 53.066-36.258 76.63-56.122 23.66-19.946 45.287-41.05 64.75-63.292 35.918-41.044 63.71-86.817 83.302-136.201 19.853-50.037 31.295-103.797 34.253-160.12 3.231-61.51 4.945-122.67 6.66-183.883.437-15.631.876-31.267 1.338-46.91z"
     style="fill:#000;fill-rule:evenodd"
     transform="translate(-24.12 -92.926)"
     id="path12" />
  <path
     d="M227.82 479.428v-98.605a132.947 132.947 0 0 0-24.16 19.062c-20.824 20.767-34.74 48.443-38.203 79.543zM270.42 363.846v115.582h27.257l-.017-118.51c-9.35.076-18.46 1.08-27.24 2.928zM227.82 520.078h-60.837c5.095 26.763 18.14 50.391 36.626 68.598a132.476 132.476 0 0 0 24.211 18.847zM270.42 520.078V624.28a140.485 140.485 0 0 0 27.278 2.937l-.015-107.14z"
     style="fill:#fff;fill-rule:evenodd"
     transform="translate(-24.12 -92.926)"
     id="path14" />
  <path
     d="M270.42 624.28V520.078h27.263l-.006-40.65H270.42V363.846a133.613 133.613 0 0 0-42.6 16.977v98.605h-62.364a138.127 138.127 0 0 0-.846 15.297c0 8.7.815 17.173 2.372 25.353h60.837v87.445c12.884 7.822 27.243 13.553 42.6 16.757z"
     style="fill:#dc0619;fill-rule:evenodd;fill-opacity:1"
     transform="translate(-24.12 -92.926)"
     id="path16" />
  <path
     d="M298.667 337.723ZM141.144 494.817c0-43.787 17.306-83.06 45.655-111.392 28.343-28.327 67.72-45.703 111.868-45.703l1.082.011v-15.614H39.662l.055 1.508c1.89 52.156 8.944 100.184 27.261 148.786 18.323 48.618 47.934 97.856 94.942 152.434 19.976 23.192 42.5 44.771 66.15 64.738 23.253 19.633 47.597 37.704 71.68 54.218v-93.388h-.656c-43.943 0-83.557-17.125-112.124-45.26-28.36-27.933-45.826-66.706-45.826-110.339zM31.018 144.617h534.424l.01-.358c.438-15.631.877-31.267 1.34-46.91l-538.219-.186c.78 15.764 1.605 31.597 2.445 47.454z"
     style="fill:#dc0619;fill-rule:evenodd;fill-opacity:1"
     transform="translate(-24.12 -92.926)"
     id="path18" />
  <path
     d="M212.988 249.44h-9.544v-89.183l35.001 57.284v-54.784h9.544v88.616l-35-54.866zm352.335-100.57H31.243l1.194 22.358c2.617 48.915 5.235 97.832 7.067 146.64H559.32c2.818-56.505 4.426-112.733 6.003-168.999zM264.154 302.937v-36.124l5.954-7.26c.254-.31.583.188.583.627v42.757c0 .438-.175.626-.583.626h-5.37c-.409 0-.584-.191-.584-.626zm18.963 0 8.755-17.037-.117-.125c-.642.375-1.634.563-2.977.563-3.151 0-5.836-1.127-8.055-3.445-2.16-2.317-3.268-5.324-3.268-9.145 0-4.196 1.167-7.516 3.56-9.896 2.394-2.38 5.429-3.57 9.106-3.57 3.677 0 6.712 1.19 9.105 3.507 2.394 2.318 3.56 5.575 3.56 9.646 0 3.195-.874 6.452-2.626 9.772l-10.33 19.98a.815.815 0 0 1-.701.376h-5.662c-.409 0-.525-.188-.35-.626zm25.258 0v-36.124l5.953-7.26c.255-.31.584.188.584.627v42.757c0 .438-.175.626-.584.626h-5.37c-.409 0-.583-.191-.583-.626zm17.024.626c-.409 0-.583-.191-.583-.626v-36.124l5.953-7.26c.255-.31.584.188.584.627v42.757c0 .438-.175.626-.584.626zm31.808-53.59a42.362 42.362 0 0 1-16.607-3.348c-5.318-2.238-10.042-5.425-14.158-9.554-4.154-4.168-7.314-8.908-9.49-14.233-2.165-5.302-3.245-10.944-3.245-16.915 0-6.01 1.073-11.674 3.246-17.013 2.168-5.327 5.334-10.085 9.489-14.253a42.978 42.978 0 0 1 14.14-9.455c5.332-2.207 10.875-3.329 16.625-3.329 5.789 0 11.354 1.115 16.72 3.329a42.926 42.926 0 0 1 14.16 9.455c4.116 4.13 7.255 8.87 9.394 14.194 2.146 5.342 3.226 11.022 3.226 17.072 0 6.01-1.087 11.669-3.226 16.973-2.146 5.323-5.279 10.046-9.395 14.175a43.678 43.678 0 0 1-14.215 9.554 42.78 42.78 0 0 1-16.664 3.347zm82.632 1.582-35.262-88.9h11.89l23.56 61.51 23.636-61.51h11.284zm29.812-2.489 33.74-88.806 33.874 88.806-10.474.094-4.636-12.234-37.599-.375-4.635 12.609zm-190.074.04v-76.71h-18.364v-9.69h46.768v9.69h-18.12v76.71zm-140.28-12.555-4.636 12.609-10.27-.094 33.74-88.806 33.874 88.806-10.474.094-4.636-12.234zm-25.955-76.103-.28 88.808h-9.832l-.038-58.58-17.201 23.89-17.494-23.328-.121 58.018h-10.3l.188-88.621 28.102 36.726zM559.105 322.12H299.749v15.613l.656.007c43.473.443 82.943 17.418 111.545 45.059 28.633 27.67 46.384 66.013 46.384 109.154l-.016 1.599c-.445 43.74-18.315 82.914-47.003 111.173-28.617 28.188-67.99 45.518-111.565 45.69v93.389l.108.074c27.48-17.545 53.066-36.259 76.63-56.122 23.66-19.946 45.287-41.05 64.75-63.292 35.918-41.045 63.71-86.818 83.302-136.202 19.853-50.037 31.295-103.797 34.253-160.12.106-2.008.21-4.015.312-6.022z"
     style="fill:#fff;fill-rule:evenodd"
     transform="translate(-24.12 -92.926)"
     id="path20" />
  <path
     d="M434.86 493.6c0-37.07-15.157-70.057-39.557-93.861-24.041-23.454-57.06-38.008-93.408-38.792l.004 28.047c28.75.467 54.736 12.31 73.65 31.224 19.3 19.302 31.239 45.966 31.239 75.418 0 29.453-11.938 56.117-31.24 75.418-18.906 18.908-44.88 30.75-73.618 31.225l.004 24.919c36.38-.711 69.359-15.437 93.366-39.086 24.418-24.052 39.56-57.344 39.56-94.512zM142.429 228.942h31.514l-15.86-41.406zM326.31 219.119c1.648 4.13 4.09 7.88 7.325 11.238 3.251 3.373 6.89 5.917 10.856 7.635 3.982 1.724 8.237 2.584 12.716 2.584 4.441 0 8.693-.866 12.697-2.604 4.02-1.743 7.651-4.29 10.875-7.615 3.186-3.287 5.618-7.01 7.288-11.18s2.505-8.594 2.505-13.253c0-4.699-.835-9.182-2.524-13.43a34.09 34.09 0 0 0-7.269-11.238c-3.186-3.287-6.799-5.793-10.818-7.518-4.004-1.717-8.274-2.584-12.754-2.584-4.517 0-8.808.863-12.849 2.584-4.04 1.721-7.601 4.24-10.723 7.518-3.175 3.335-5.62 7.09-7.288 11.296-1.668 4.208-2.505 8.673-2.505 13.372 0 4.66.818 9.066 2.467 13.195zM503.344 187.536l-15.655 41.406h31.514zM296.191 273.31c0-4.008-2.334-6.764-6.07-6.764-3.677 0-6.012 2.756-6.012 6.765s2.335 6.765 6.012 6.765c3.736 0 6.07-2.756 6.07-6.765z"
     style="fill:#fff;fill-rule:evenodd"
     transform="translate(-24.12 -92.926)"
     id="path22" />
  <path
     d="M298.666 341.974c-42.984 0-81.307 16.903-108.878 44.457-27.565 27.549-44.392 65.76-44.392 108.386 0 42.452 16.978 80.162 44.547 107.315 27.791 27.372 66.353 44.032 109.151 44.032 42.686 0 81.262-16.895 109.248-44.463 27.917-27.5 45.307-65.62 45.74-108.183v-1.565c0-41.942-17.25-79.21-45.072-106.098-27.853-26.917-66.295-43.449-108.639-43.88zM160.36 494.726c0-38.457 15.348-72.952 40.311-97.846 24.994-24.925 59.622-40.217 98.128-40.217 38.702 0 73.967 15.166 99.461 40.037 25.2 24.584 40.852 58.64 40.852 96.901 0 38.348-15.63 72.705-40.838 97.535-25.387 25.007-60.484 40.342-99.1 40.342-38.618 0-73.431-15.052-98.537-39.778-24.927-24.55-40.277-58.627-40.277-96.974z"
     style="fill:#ffbd00;fill-rule:evenodd"
     transform="translate(-24.12 -92.926)"
     id="path24" />
  <path
     d="m301.9 393.246.03 204.78c27.564-.475 52.474-11.84 70.612-29.978 18.532-18.531 29.994-44.133 29.994-72.412 0-28.278-11.462-53.88-29.994-72.411-18.144-18.145-43.066-29.512-70.642-29.979Z"
     style="fill:#00aff5;fill-rule:evenodd"
     transform="translate(-24.12 -92.926)"
     id="path26" />
</svg>
