<svg xmlns="http://www.w3.org/2000/svg" xmlns:xlink="http://www.w3.org/1999/xlink" id="Livello_1" x="0px" y="0px" viewBox="0.0 0.0 932.0 1258.0" style="enable-background:new 0 0 932 1258;" xml:space="preserve" width="272.2049113226854" height="367.3703002421399"><style type="text/css">	.st0{fill:#FFFFFF;}	.st1{clip-path:url(#SVGID_00000134940685643787687050000000320402013826586509_);fill:#E20613;}	.st2{clip-path:url(#SVGID_00000146459367802176913650000007316921010637592991_);fill:#FFFFFF;}	.st3{fill:#E20613;}</style><g>	<path class="st0" d="M466.3,0.2h-241c0,0-30.7,145.7-205.8,196.5c0,0-30.4,612.1,446.9,1061.1C943.6,808.8,913.2,196.7,913.2,196.7  C738.1,145.9,707.4,0.2,707.4,0.2H466.3z"/>	<g>		<defs>			<path id="SVGID_1_" d="M466.3,1257.8C943.6,808.8,913.2,196.7,913.2,196.7C738.1,145.9,707.4,0.2,707.4,0.2H466.3l0,403.9H348.9    V0.2H228L214,40v364.1H38.9c6.8,49.4,17.2,92.9,26.2,136H214v383.3c24,50.8,66.7,106.5,134.9,198.6V540.1h117.4l0,703.3    L466.3,1257.8z"/>		</defs>		<clipPath id="SVGID_00000139989745468763106270000001506629345077162669_">			<use xlink:href="#SVGID_1_" style="overflow:visible;"/>		</clipPath>		<path style="clip-path:url(#SVGID_00000139989745468763106270000001506629345077162669_);fill:#E20613;" d="M466.3,0.2h-241   c0,0-30.7,145.7-205.8,196.5c0,0-30.4,612.1,446.9,1061.1C943.6,808.8,913.2,196.7,913.2,196.7C738.1,145.9,707.4,0.2,707.4,0.2   H466.3z"/>	</g>	<g>		<defs>			<polygon id="SVGID_00000152237127875104571990000013885370938421597866_" points="865.1,540.1 466.3,540.1 466.3,404.1     890.7,404.1    "/>		</defs>		<clipPath id="SVGID_00000077293475958969529630000002291894106837532288_">			<use xlink:href="#SVGID_00000152237127875104571990000013885370938421597866_" style="overflow:visible;"/>		</clipPath>		<path style="clip-path:url(#SVGID_00000077293475958969529630000002291894106837532288_);fill:#FFFFFF;" d="M466.3,13.5h-236   c0,0-30.1,142.6-201.5,192.3c0,0-29.8,599.2,437.5,1038.8C933.6,805,903.8,205.8,903.8,205.8C732.4,156.1,702.3,13.5,702.3,13.5   H466.3z"/>	</g>	<path class="st3" d="M707.4,0.2c0,0,30.7,145.7,205.8,196.5c0,0,30.5,612.1-446.9,1061.1C-11,808.8,19.4,196.7,19.4,196.7  C194.5,145.9,225.3,0.2,225.3,0.2h241H707.4z M466.3,22.8H234c0,0-29.6,140.4-198.4,189.4c0,0-29.3,590.1,430.8,1023  c460.1-432.9,430.8-1023,430.8-1023c-168.8-49-198.4-189.4-198.4-189.4H466.3z"/>	<g>		<path class="st3" d="M515.1,420.4H549l25.2,103.3h-28.6l-2.8-18.1h-21.4l-2.7,18.1h-28.6L515.1,420.4z M532.2,441.5h-0.3   l-7.4,43.8h15L532.2,441.5z"/>		<path class="st3" d="M584,495.1h24.3v28.6H584V495.1z"/>		<path class="st3" d="M667.6,451.8c0-11.7-2.2-15.2-7.4-15.2c-8.1,0-9.1,7.5-9.1,35.4c0,27.9,1,35.4,9.1,35.4   c6.5,0,8.1-5.8,8.1-25.3h26v7.7c0,28.9-16.8,35.9-34.1,35.9c-30.2,0-36.9-15-36.9-53.7c0-39.5,9-53.7,36.9-53.7   c24.3,0,33.4,12.7,33.4,32.7v6.5h-26V451.8z"/>		<path class="st3" d="M709.4,495.1h24.3v28.6h-24.3V495.1z"/>		<path class="st3" d="M750.8,420.4h40.4c20.5,0,29.8,13.9,29.8,31.8c0,21.3-11.9,32.1-33.8,32.1h-9.4v39.3h-26.9V420.4z M777.7,465   h5.1c6.8,0,10.4-3.9,10.4-12.6c0-8.4-3.5-12.6-10.4-12.6h-5.1V465z"/>		<path class="st3" d="M816.2,495.1h24.3v28.6h-24.3V495.1z"/>	</g></g></svg>